<?xml version="1.0" encoding="utf-8"?>
<!-- Generator: Adobe Illustrator 24.3.0, SVG Export Plug-In . SVG Version: 6.00 Build 0)  -->
<svg version="1.1" id="Layer_1" xmlns="http://www.w3.org/2000/svg" xmlns:xlink="http://www.w3.org/1999/xlink" x="0px" y="0px"
	 viewBox="0 0 796 754.4" style="enable-background:new 0 0 796 754.4;" xml:space="preserve">
<style type="text/css">
	.st0{fill:#040404;}
	.st1{fill:#FFFFFF;}
	.st2{fill:#972C27;}
</style>
<g>
	<path class="st0" d="M790.93,427.36c-14.96-10.97-30.46-21.13-46.26-30.84c-2.94-1.81-4.21-3.59-3.77-7.31
		c0.72-6.05,0.78-12.21,0.71-18.33c-0.64-57.08-16.49-109.69-47.77-157.37c-7.18-10.96-6.57-23.15-10.45-35.59
		c5.19,1.55,9.23,2.9,13.35,3.97c23.32,6.02,38.01-2.53,43.37-25.19c0.42-1.75,0.52-3.57,1-5.3c0.96-3.44-0.3-5.39-3.23-7.5
		c-25-17.95-41.79-41.18-46.65-72.31c-2.14-13.7-5.68-27.13-12.58-39.39c-4.86-8.64-11.34-14.1-22.03-15.01
		c-25.64-2.18-50.7-1.06-74.58,9.59c-2.48,1.11-3.94,0.34-5.87-0.8C554.82,13.2,531.59,6.13,506.95,3.36
		c-35.48-3.99-70.42,0.19-105.22,6.71c-2.53,0.47-4.92,0.52-7.46,0.04c-28.55-5.32-57.23-9.06-86.38-8.14
		c-27.51,0.86-54.2,5.66-78.55,18.82c-9.23,4.99-16.57,6.02-26.63,2.11c-19.76-7.67-40.81-7.42-61.8-6.28
		c-7.44,0.41-12.87,3.3-17.62,8.82c-16.41,19.09-23.09,41.91-26.21,66.24c-3.26,25.4-14.22,45.15-40.28,53.4
		c-2.41,0.76-2.94,2.15-2.53,4.49c1.56,8.9,3.76,17.58,8.25,25.54c8.46,15.04,21.07,19.9,37.42,14.57
		c5.64-1.84,10.67-4.98,16.66-7.66c-0.04,2.84-1.63,3.95-2.6,5.37c-8.1,11.91-10.23,24.43-3.67,37.72
		c3.33,6.76,8.42,12.12,14.43,16.54c2.84,2.1,3.24,3.14,0.18,5.76C81.5,284.64,61.43,333.5,55.17,389.06
		c-0.39,3.52-1.27,5.74-4.41,7.77c-15.56,10.09-30.91,20.49-46.31,30.83c-1.29,0.86-3.38,1.43-3.25,3.26
		c0.17,2.28,2.65,2.17,4.21,2.68c18.62,6.14,37.24,12.25,55.93,18.16c3.24,1.03,5.01,2.5,5.99,5.95c1.71,6.04,3.99,11.95,6.44,17.75
		c1.38,3.29,1.28,5.77-0.82,8.84c-8.76,12.76-17.25,25.71-25.74,38.66c-0.92,1.4-2.93,2.83-1.82,4.72c1.04,1.77,3.28,1.05,5,1.05
		c15.31-0.03,30.62-0.14,45.93-0.21c2.28-0.01,4.39-0.28,6.08,2.26c8.07,12.16,17.01,23.68,26.39,34.86
		c1.4,1.66,1.66,3.13,1.31,5.34c-2.91,18.31-5.61,36.65-8.32,54.99c-0.79,5.31-0.18,5.81,5.01,3.85
		c15.32-5.77,30.63-11.56,45.86-17.53c2.63-1.04,4.49-1.14,6.85,0.68c13.7,10.59,28.35,19.76,43.58,27.98
		c2.85,1.53,3.62,3.28,3.8,6.25c1.13,18.69,2.58,37.35,5.17,55.91c0.87,6.2,1.34,6.41,6.46,3.05c17.15-11.26,34.33-22.5,51.38-33.93
		c2.83-1.89,5.18-2.14,8.45-1.21c16.28,4.66,32.84,8.11,49.68,9.97c3.57,0.39,5.27,2.08,6.82,5.04c11.57,22.08,25.95,42.31,41.16,62
		c2.92,3.79,4.8,3.94,7.65-0.04c14.29-19.92,27.7-40.37,38.31-62.54c1.32-2.77,2.85-4.09,5.93-4.46
		c16.99-2.08,33.74-5.4,50.17-10.21c2.89-0.85,4.93-0.33,7.42,1.34c17.22,11.5,34.56,22.81,51.89,34.14
		c4.79,3.14,5.49,2.92,6.16-2.87c2.19-18.78,4.24-37.58,6.14-56.39c0.34-3.36,1.4-5.44,4.55-7.09
		c14.53-7.63,28.24-16.61,41.35-26.46c2.68-2.02,4.73-2.19,7.79-0.98c15.23,5.99,30.6,11.63,45.86,17.54
		c3.64,1.41,5.52,1.14,5.09-3.37c-1.85-19.35-2.7-38.8-5.37-58.07c-0.41-2.9,0.09-5.05,2.05-7.34c7.88-9.15,15.1-18.85,21.61-29
		c2.36-3.67,4.91-4.32,8.81-4.05c14.55,1.02,29.13,1.33,43.72,1.18c5.45-0.05,5.77-0.69,3.2-5.41
		c-5.68-10.44-10.54-21.45-17.33-31.11c-7.88-11.22-10.02-21.9-2.94-33.96c0.8-1.37,1.2-3.03,1.52-4.6c0.6-2.97,2.15-4.26,5.25-5.1
		c18.38-5,36.67-10.34,54.96-15.67c1.58-0.46,4.04-0.05,4.43-2.33C794.6,428.97,792.29,428.36,790.93,427.36z M51.56,435.22
		c-8.33-2.24-16.65-4.51-24.97-6.77c-0.13-0.04-0.22-0.25-0.86-1.01c9.38-6.08,18.47-12.21,28.29-17.05
		c7.96-3.92,12.89-1.63,14.67,7.13C72.35,435.53,66.67,439.27,51.56,435.22z M109.15,163.49c-4.36,2.92-9.21,4.95-14.71,4.55
		c-4.67-0.34-8.24-2.41-10.43-6.61c-2.24-4.29-2.83-7.98,2.57-10.73c3.17-1.6,5.86-4.16,8.71-6.36
		c15.62-12.05,26.78-26.46,29.2-47.14c2.19-18.67,10.5-35.41,20.63-51.18c1.72-2.67,3.64-3.89,6.94-4.06
		c24.36-1.19,47.69,3.04,69.86,13.19c3.21,1.47,5.6,1.19,8.53-0.42c21.22-11.68,43.48-19.85,68.12-19.96
		c19.44-0.08,38.21,4,56.99,8.46c20.97,5,33.51,18.4,40.07,38.27c0.38,1.15,0.32,2.83,1.91,2.83c1.77,0.01,1.37-1.83,1.69-2.92
		c4.15-13.9,12.67-24.53,24.65-32.41c6.92-4.55,15.15-5.53,22.96-7.47c23.57-5.85,47.33-9.23,71.6-4.52
		c16.62,3.22,31.82,10.06,46.62,17.94c2.3,1.23,4.23,2.01,7.01,0.7c21.04-9.92,43.24-14.06,66.5-13.96
		c7.89,0.04,12.4,3.47,15.77,9.64c4.76,8.71,7.95,18.1,11.59,27.29c3.19,8.03,6.71,15.95,9.35,24.16
		c5.02,15.61,14.21,28.09,26.8,38.34c3.63,2.96,6.94,6.33,9.28,10.45c2.51,4.39,1.16,7.61-3.62,9.16
		c-5.16,1.66-10.15,0.48-14.66-1.74c-20.18-9.92-35.07-24.91-42.7-46.38c-4.4-12.41-8.94-24.68-16.32-35.73
		c-3.78-5.67-8.46-8.3-15.49-8.85c-17.69-1.36-33.39,3.79-48.25,12.64c-1.05,0.62-2.65,1-2.49,2.51c0.2,1.91,2.03,1.61,3.38,1.87
		c6.01,1.14,13.19,0.66,17.68,3.9c4.55,3.28,4.02,11.04,5.89,16.78c8.11,25.03,18.87,48.65,36.32,68.73
		c2.71,3.12,5.67,6.02,8.6,8.95c1.93,1.93,3.6,4,4.81,6.46c3.04,6.25,2.4,12.13-1.81,15.9c-4.19,3.77-10.39,4.31-15.99,0.65
		c-5.71-3.74-11-8.1-16.51-12.14c-10.47-7.68-21.42-14.61-32.94-20.59c-2.88-1.49-4.32-3.12-4.01-6.6c0.26-2.81-0.39-5.73-0.84-8.57
		c-1.93-12.18-8.16-20.59-20.27-24.74c-7.05-2.42-14.22-4.27-21.41-6.69c8.58,0.46,17.18-0.41,25.65,1.58
		c12.14,2.87,23.83,6.86,34.81,12.85c1.19,0.65,2.53,2.11,3.85,0.95c1.4-1.23-0.04-2.7-0.63-3.88c-8.33-16.74-22.27-26-40.21-29.57
		c-16.76-3.34-33.28-1.24-49.65,2.95c-4.29,1.09-9.52,3.44-12.46-1.09c-2.82-4.33,1.07-8.38,3.52-12.14
		c1.12-1.72,4.31-3.26,3.05-5.07c-1.48-2.14-4.26,0.07-6.39,0.65c-12.46,3.39-22.09,11.16-30.54,20.46
		c-13.21,14.52-29.43,16.02-47.06,11.15c-6.87-1.9-12.1-6.2-14.95-13.05c-0.49-1.18-0.48-3.28-2.39-3.12
		c-1.35,0.11-1.57,1.76-2.04,2.92c-2.9,7.27-8.51,11.55-15.82,13.48c-17.57,4.65-33.53,2.72-46.46-11.63
		c-8.82-9.8-19.14-17.48-32.18-20.79c-1.45-0.37-3.36-1.89-4.5-0.31c-1.23,1.7,1,2.76,1.9,3.95c3.01,4.03,7.64,8.41,4.67,13.36
		c-3.04,5.07-8.76,2.05-13.37,0.95c-17.86-4.28-35.82-6.47-53.87-1.48c-15.45,4.28-27.46,13.16-34.8,27.74
		c-0.7,1.4-2.1,3.09-0.9,4.38c1.44,1.56,2.94-0.36,4.24-1.05c17.12-9.08,35.33-14.14,54.67-15.17c3-0.16,5.95,0.16,9.09,0.97
		c-5.56,1.23-10.95,2.25-16.24,3.66c-5.4,1.44-10.4,3.95-15.48,6.25c-5.46,2.48-8.81,6.48-10.83,11.99
		c-1.94,5.28-3.9,10.69-3.57,16.24c0.32,5.31-2.1,7.44-6.3,9.67c-15.13,8.05-29.29,17.64-42.66,28.38
		c-3.5,2.81-7.09,5.54-11.99,5.53c-8.63,0-14.07-6.85-11.87-15.21c0.93-3.55,2.71-6.69,5.37-9.23
		c26.25-24.97,39.98-56.75,49.16-90.92c1.07-3.97,2.82-5.64,6.78-6.1c5.17-0.6,10.27-1.79,15.38-2.76c0.27-0.05,0.47-0.5,1.05-1.16
		C216,76.46,204.42,71.5,191.93,69.79c-26.51-3.62-23.06-3.44-33.16,17.2c-4.43,9.05-7.41,18.72-10.67,28.25
		C141.01,136.05,127.07,151.43,109.15,163.49z M541.23,169.11c8.39-1.91,13.31-7.34,16.21-14.92c0.91-2.39,1.9-4.06,4.53-3.01
		c2.65,1.05,1.21,3.14,0.9,5.04c-2.31,14.28-12.48,19.37-27.9,15.49C536.7,169.68,539.28,169.55,541.23,169.11z M538.36,142.66
		c2.99,0.83,4.96,2.37,6.71,4.09c3.41,3.35,2.58,6.97-1.87,8.68c-1.76,0.67-2.9,0.75-3.09-1.84
		C539.86,150.1,539.03,146.65,538.36,142.66z M254.01,155.74c-1.83,0.16-3.27-1.21-4.52-2.56c-1.23-1.34-1.6-2.74-0.48-4.34
		c1.98-2.85,4.51-4.96,8.22-6.1c-0.5,3.23-0.83,6.22-1.47,9.14C255.46,153.25,256.31,155.55,254.01,155.74z M252.21,168.49
		c2.41,0.88,4.84,1.7,7.27,2.55c-0.13,0.47-0.26,0.94-0.38,1.41c-6.37,1.27-12.68,1.16-18.48-2.56c-5.99-3.85-7.5-10.07-8.05-16.64
		c-0.1-1.21,0.54-2.07,1.74-2.37c1.29-0.32,2.53-0.31,3.18,1.15c0.73,1.63,1.41,3.28,2.1,4.93
		C242.03,162.74,246.43,166.37,252.21,168.49z M123.61,369.55c0.29-2.96,0.33-7.66,3.78-8.15c2.92-0.42,4.09,3.96,5.65,6.48
		c2.47,3.98,4.58,8.18,7.13,12.09c1.73,2.67,3.73,5.98,7.49,5.11c4.07-0.93,4.46-4.89,4.58-8.3c0.3-9.35,0.45-18.72,0.46-28.08
		c0.02-18.96,1.6-37.73,6.03-56.23c9.37-39.11,32.06-68.33,65.06-90.72c37.4-25.39,78.5-40.6,122.95-46.87
		c50.19-7.08,99.84-4.28,148.54,10.45c35.59,10.76,67.64,28.06,96.08,52.19c25.15,21.34,39.02,48.91,46.12,80.45
		c5.07,22.5,4.89,45.39,4.7,68.27c-0.04,4.5,0.05,9,0.97,13.43c0.5,2.4,1.32,4.6,3.88,5.4c2.73,0.86,4.44-1.05,5.97-2.78
		c4.34-4.91,6.62-11.11,10.22-16.49c1.2-1.81,1.86-5.08,4.6-4.46c2.44,0.55,2.68,3.69,3.09,5.9c2.13,11.42,1.84,22.98,1.21,34.48
		c-0.94,17.16-3.53,34.02-11.67,49.54c-11.04,21.03-29.87,30.82-52.56,27.39c-8-1.21-13.52-5.7-17.09-12.62
		c-1.97-3.81-3.81-7.87-4.68-12.03c-5.39-26.02-17.04-49.59-28.23-73.36c-5.22-11.08-10.22-22.24-14.29-33.81
		c-3.59-10.23-8.69-19.75-14.23-29.03c-1.55-2.59-2.21-5.1-2.03-8.13c1.16-19.67-0.58-39-9.75-56.78
		c-6.32-12.25-6.15-10.13-13.03-0.9c-6.46,8.68-9.25,18.93-11.05,30.04c-12.98-7-26.32-11.62-40.39-14.11
		c-6.02-1.06-12.18-1.23-18.1-2.98c-12.11-3.58-19.06-11.81-20.47-24.36c-0.82-7.3,0.2-14.39,2.65-21.26
		c3.41-9.61,10.13-14.73,18.16-14.03c9.72,0.86,17.66,7.98,19.53,17.42c0.33,1.66-0.59,4.32,1.43,4.75c2.4,0.51,3.55-2.11,4.61-3.88
		c2.17-3.61,3.32-7.74,3.33-11.84c0.01-4.86,2.42-5.49,6.4-5.38c17.69,0.53,34.01,5.67,49.12,14.63
		c34.8,20.64,54.06,52.3,63.63,90.67c2.14,8.57,3.36,17.31,4.4,26.07c0.16,1.32-0.37,3.5,1.4,3.66c2.3,0.21,1.88-2.25,2.13-3.63
		c5.21-28.45,2.53-56.06-10.26-82.14c-18.34-37.39-48.77-60.19-88.54-70.91c-16.72-4.5-32.89-10.31-48.71-17.36
		c-29.04-12.91-58.94-13.46-88.14-1.78c-19.9,7.96-39.9,15.2-60.43,21.33c-65.74,19.62-104.17,82.89-91.74,150.26
		c0.3,1.6-0.34,4.39,2.11,4.22c2.28-0.16,1.47-2.86,1.66-4.5c4.15-36.96,16.36-70.42,43.36-97.07
		c19.14-18.9,41.89-30.85,69.12-33.15c1.61-0.14,3.24-0.08,4.84-0.26c4.23-0.48,6.2,0.96,6.16,5.6c-0.03,4.51,1.36,8.9,4.01,12.69
		c0.88,1.25,1.77,3.22,3.6,2.81c1.88-0.43,1.52-2.55,1.75-4.06c1.33-8.72,6.43-14.36,14.58-17.09c9.12-3.04,17.43,0.61,21.54,9.34
		c3.5,7.46,5.01,15.4,4.33,23.64c-1.22,14.8-10.02,24.25-25.2,26.62c-12.62,1.98-25.38,3.27-37.25,8.46
		c-3.95,1.73-8.11,3.26-11.59,5.72c-4.38,3.1-5.09,1.11-5.7-2.82c-1.62-10.52-5.72-20.03-12.26-28.44c-4.48-5.76-5.04-5.78-8.8,0.32
		c-7.16,11.61-9.94,24.61-11.44,37.92c-0.85,7.52-0.83,15.1-0.33,22.66c0.11,1.58,0.41,3.18-0.66,4.67
		c-11.22,15.59-15.98,34.13-23.52,51.4c-8.48,19.44-18.49,38.2-26,58.09c-3.24,8.6-5.93,17.35-8.06,26.29
		c-0.59,2.44-1.24,4.87-2,7.26c-5.82,18.43-15.83,23.6-35.08,21.54c-21.65-2.31-34.3-16.42-41.66-35.47
		C121.82,419.69,121.17,394.68,123.61,369.55z M277.87,347.38c13.31-33.67,38.99-51.41,74.47-55.9c14.14-1.79,28.32-2.55,42.55-2.52
		c19.46-0.02,38.84,0.61,58.04,4.43c30.35,6.05,51.68,23.48,63.11,51.78c14.09,34.86,26.36,70.41,34.42,107.25
		c1.46,6.67,2.11,13.48,1.39,20.38c-0.99,9.54-5.81,16.37-13.9,21.25c-5.91,3.55-12.17,6.33-18.71,8.27
		c-28.34,8.42-55.71,19.35-82.49,31.77c-25.72,11.93-51.46,12.47-77.23,0.54c-28.28-13.09-57.26-24.29-87.03-33.49
		c-5.85-1.8-11.41-4.43-16.58-7.78c-8.3-5.39-12.64-12.93-12.93-22.94c-0.32-11.13,1.84-21.86,4.76-32.48
		C256.19,407.23,266.16,376.99,277.87,347.38z M283.84,259.96c5.49,7.97,7.3,15.87,7.88,24.16c0.08,1.27,0.02,2.59-1.22,3.36
		c-4.72,2.91-8.26,7.12-12.5,12.08C277.08,285.54,278.58,273.01,283.84,259.96z M388.38,196.35c4.21,4.74,4.99,15.55,0.86,22.02
		c0.71-14.13-6.8-21.12-19.22-24.4C376.66,190.74,384.49,191.96,388.38,196.35z M354.01,186.21c-0.75-3.17,1.17-5.03,3-6.81
		c5.11-4.98,11.61-6.96,18.4-8.16c16.82-2.98,33.58-2.95,50.18,1.45c4.9,1.3,9.46,3.41,12.93,7.31c1.4,1.57,3.02,3.11,2.33,6.1
		C419.12,176.25,375.08,176.3,354.01,186.21z M503.56,284.2c0.75-8.26,2.43-16.24,7.92-24.28c5.5,13.1,6.6,25.74,5.98,39.74
		c-4.35-5.02-8.03-9.51-13.03-12.53C503.36,286.48,503.47,285.25,503.56,284.2z M98.42,511.36c-10,1.8-20.07,3.15-31.34,4.88
		c8.64-9.86,16.27-19.14,24.55-27.79c4.8-5.03,9.83-4.14,14.29,1.28c0.12,0.14,0.23,0.28,0.34,0.42
		C115.33,501.8,112.84,508.77,98.42,511.36z M173.37,584.93c-7.46,7.07-16.39,12.15-24.89,17.81c-2.06,1.38-4.22,2.62-6.33,3.92
		c2.96-12.95,5.23-25.87,10.31-37.9c3.23-7.64,8.38-9.02,15.69-5.05c1.41,0.77,2.78,1.64,4.06,2.62
		C180.24,572.45,180.66,578.04,173.37,584.93z M278.1,648.9c-8.83,9.68-18.38,18.57-29.8,27.81c1.49-15.81,1.49-30.23,4.51-44.3
		c2.25-10.55,8.08-13.61,18.24-10.25C287.5,627.61,289.76,636.13,278.1,648.9z M300.7,609.54c-1.08,2.77-1.61,3.48-4.73,1.21
		c-12.45-9.06-26.17-14.6-42.08-12.65c-5.45,0.67-9.84,3.24-13.45,7.07c-2.26,2.4-4.26,2.86-7.02,1.19
		c-10.52-6.37-21.09-12.65-31.6-19.03c-3.14-1.9-4.16-4.3-3.68-8.44c0.8-6.86-2.48-13.04-7.16-17.88
		c-10.63-10.99-22.13-20.65-39.01-18.8c-2.19,0.24-3.36-1.08-4.51-2.36c-7.57-8.36-14.66-17.11-21.17-26.33
		c-1.06-1.5-1.45-3.03-1.52-4.97c-0.64-17.23-6.29-31.72-23.01-39.56c-2.69-1.26-2.76-3.72-3.57-5.65
		c-7.08-16.87-12.29-34.33-15.57-52.33c-0.55-3.04-2.71-8.28,0.62-9.08c3.07-0.74,2.79,4.9,3.82,7.78
		c11.68,32.58,29.39,61.42,53.21,86.56c26.95,28.43,58.38,50.63,93.45,67.88c23.82,11.71,48.67,20.58,74.25,27.51
		c0.86,0.23,1.7,0.55,3.26,1.07C306.48,598.11,303.06,603.51,300.7,609.54z M413.56,679.2c-3.42,11.16-7.83,21.92-13.03,32.36
		c-1.36,2.74-2.23,2.02-3.49-0.02c-6.31-10.26-11.8-20.9-15.87-32.26c-1-2.78-0.33-3.4,2.53-3.25c4.64,0.25,9.31,0.07,13.97,0.07
		v0.08c4.48,0,8.97,0.12,13.44-0.05C413.61,676.04,414.32,676.71,413.56,679.2z M451.9,645.72c-15.37,12.61-33.81,16.23-52.37,17.39
		c-20.48-0.81-39.15-4.78-55.64-16.85c-18.8-13.76-19.42-37.76-1.28-52.45c19.07-15.43,41.16-18.83,64.59-17.24
		c16.93,1.14,32.52,6.16,45.7,17.41C471.41,609.79,469.69,631.11,451.9,645.72z M513.65,643.59c-5.69-7.59-4.15-13.45,4.08-18.27
		c0.31-0.19,0.63-0.36,0.94-0.53c15.07-8.11,23.16-4.24,25.33,12.63c1.63,12.62,2.51,25.34,3.88,39.64
		C534.77,665.96,522.96,656.01,513.65,643.59z M624.56,585.18c-5.69-5.11-6.62-9.14-4.05-13.65c3.2-5.63,12.56-10.81,17.57-9.7
		c4.44,0.98,6.56,4.44,7.76,8.25c3.79,11.94,7.28,23.99,10.89,35.99C645.23,599.91,634.08,593.71,624.56,585.18z M670.84,506.95
		c0.29,2.83-0.36,5.12-2.12,7.47c-6.21,8.32-12.67,16.4-19.55,24.19c-2.41,2.73-4.72,3.67-8.31,3.51
		c-17.36-0.76-38.87,15.38-43.17,32.11c-0.27,1.04-0.97,2.29-0.64,3.12c2.76,7.08-2.67,9.28-7.01,12.22
		c-9,6.08-18.38,11.53-27.85,16.83c-2.03,1.13-3.98,1.8-5.86-0.18c-12.03-12.65-25.96-9.2-39.97-4.68
		c-6.17,1.99-11.66,5.38-17.07,8.86c-1.54,0.99-3.16,2.65-4.15-0.25c-2.2-6.47-6.05-11.93-10.77-17.49
		c14.49-4.11,28.37-8.15,41.91-13.28c32.31-12.26,62.64-27.97,90.41-48.84c23.25-17.48,43.59-37.55,60.56-61.08
		c13.87-19.24,24.93-39.96,31.89-62.73c0.21-0.69,0.38-1.42,0.74-2.02c0.69-1.14,0.77-3.28,2.67-2.8c1.75,0.43,1.44,2.35,1.22,3.68
		c-0.92,5.66-1.69,11.37-3.06,16.93c-3.65,14.77-8.05,29.29-14.39,43.19c-0.81,1.78-1.58,2.91-3.54,3.53
		C679.8,473.32,669.7,495.68,670.84,506.95z M728.58,514.72l-0.57,1.17c-11.31-1.87-22.69-3.38-33.89-5.72
		c-7.58-1.58-9.44-6.16-6.5-13.3c0.54-1.32,1.2-2.61,1.93-3.84c5.69-9.53,11.55-10.4,19.09-2.13
		C715.62,498.54,721.96,506.76,728.58,514.72z M741.04,435.73c-7.71,1.68-11.71-1.84-11.9-9.65c-0.11-4.7,0.3-9.36,2.56-13.64
		c2.05-3.86,5.27-5.61,9.4-4.08c11.71,4.32,21.43,12.04,33.22,19.02C762.22,430.45,751.7,433.42,741.04,435.73z"/>
	<path class="st1" d="M517.46,299.66c-4.35-5.02-8.03-9.51-13.03-12.53c-1.07-0.65-0.96-1.88-0.87-2.93
		c0.75-8.26,2.43-16.24,7.92-24.28C516.98,273.02,518.08,285.66,517.46,299.66z"/>
	<path class="st1" d="M543.2,155.43c-1.76,0.67-2.9,0.75-3.09-1.84c-0.25-3.49-1.08-6.94-1.75-10.93c2.99,0.83,4.96,2.37,6.71,4.09
		C548.48,150.1,547.65,153.72,543.2,155.43z"/>
	<path class="st1" d="M255.76,151.88c-0.3,1.37,0.55,3.67-1.75,3.86c-1.83,0.16-3.27-1.21-4.52-2.56c-1.23-1.34-1.6-2.74-0.48-4.34
		c1.98-2.85,4.51-4.96,8.22-6.1C256.73,145.97,256.4,148.96,255.76,151.88z"/>
	<path class="st1" d="M440.85,186.1c-21.73-9.85-65.77-9.8-86.84,0.11c-0.75-3.17,1.17-5.03,3-6.81c5.11-4.98,11.61-6.96,18.4-8.16
		c16.82-2.98,33.58-2.95,50.18,1.45c4.9,1.3,9.46,3.41,12.93,7.31C439.92,181.57,441.54,183.11,440.85,186.1z"/>
	<path class="st1" d="M389.24,218.37c0.71-14.13-6.8-21.12-19.22-24.4c6.64-3.23,14.47-2.01,18.36,2.38
		C392.59,201.09,393.37,211.9,389.24,218.37z"/>
	<path class="st1" d="M290.5,287.48c-4.72,2.91-8.26,7.12-12.5,12.08c-0.92-14.02,0.58-26.55,5.84-39.6
		c5.49,7.97,7.3,15.87,7.88,24.16C291.8,285.39,291.74,286.71,290.5,287.48z"/>
	<path class="st1" d="M51.56,435.22c-8.33-2.24-16.65-4.51-24.97-6.77c-0.13-0.04-0.22-0.25-0.86-1.01
		c9.38-6.08,18.47-12.21,28.29-17.05c7.96-3.92,12.89-1.63,14.67,7.13C72.35,435.53,66.67,439.27,51.56,435.22z"/>
	<path class="st1" d="M98.42,511.36c-10,1.8-20.07,3.15-31.34,4.88c8.64-9.86,16.27-19.14,24.55-27.79
		c4.8-5.03,9.83-4.14,14.29,1.28c0.12,0.14,0.23,0.28,0.34,0.42C115.33,501.8,112.84,508.77,98.42,511.36z"/>
	<path class="st1" d="M278.1,648.9c-8.83,9.68-18.38,18.57-29.8,27.81c1.49-15.81,1.49-30.23,4.51-44.3
		c2.25-10.55,8.08-13.61,18.24-10.25C287.5,627.61,289.76,636.13,278.1,648.9z"/>
	<path class="st1" d="M173.37,584.93c-7.46,7.07-16.39,12.15-24.89,17.81c-2.06,1.38-4.22,2.62-6.33,3.92
		c2.96-12.95,5.23-25.87,10.31-37.9c3.23-7.64,8.38-9.02,15.69-5.05c1.41,0.77,2.78,1.64,4.06,2.62
		C180.24,572.45,180.66,578.04,173.37,584.93z"/>
	<path class="st1" d="M774.32,427.38c-12.1,3.07-22.62,6.04-33.28,8.35c-7.71,1.68-11.71-1.84-11.9-9.65
		c-0.11-4.7,0.3-9.36,2.56-13.64c2.05-3.86,5.27-5.61,9.4-4.08C752.81,412.68,762.53,420.4,774.32,427.38z"/>
	<path class="st1" d="M728.58,514.72c-0.19,0.39-0.38,0.78-0.57,1.17c-11.31-1.87-22.69-3.38-33.89-5.72
		c-7.58-1.58-9.44-6.16-6.5-13.3c0.54-1.32,1.2-2.61,1.93-3.84c5.69-9.53,11.55-10.4,19.09-2.13
		C715.62,498.54,721.96,506.76,728.58,514.72z"/>
	<path class="st1" d="M656.73,606.07c-11.5-6.16-22.65-12.36-32.17-20.89c-5.69-5.11-6.62-9.14-4.05-13.65
		c3.2-5.63,12.56-10.81,17.57-9.7c4.44,0.98,6.56,4.44,7.76,8.25C649.63,582.02,653.12,594.07,656.73,606.07z"/>
	<path class="st1" d="M547.88,677.06c-13.11-11.1-24.92-21.05-34.23-33.47c-5.69-7.59-4.15-13.45,4.08-18.27
		c0.31-0.19,0.63-0.36,0.94-0.53c15.07-8.11,23.16-4.24,25.33,12.63C545.63,650.04,546.51,662.76,547.88,677.06z"/>
	<path class="st1" d="M413.56,679.2c-3.42,11.16-7.83,21.92-13.03,32.36c-1.36,2.74-2.23,2.02-3.49-0.02
		c-6.31-10.26-11.8-20.9-15.87-32.26c-1-2.78-0.33-3.4,2.53-3.25c4.64,0.25,9.31,0.07,13.97,0.07v0.08c4.48,0,8.97,0.12,13.44-0.05
		C413.61,676.04,414.32,676.71,413.56,679.2z"/>
	<path class="st1" d="M707.74,160.73c-5.16,1.66-10.15,0.48-14.66-1.74c-20.18-9.92-35.07-24.91-42.7-46.38
		c-4.4-12.41-8.94-24.68-16.32-35.73c-3.78-5.67-8.46-8.3-15.49-8.85c-17.69-1.36-33.39,3.79-48.25,12.64
		c-1.05,0.62-2.65,1-2.49,2.51c0.2,1.91,2.03,1.61,3.38,1.87c6.01,1.14,13.19,0.66,17.68,3.9c4.55,3.28,4.02,11.04,5.89,16.78
		c8.11,25.03,18.87,48.65,36.32,68.73c2.71,3.12,5.67,6.02,8.6,8.95c1.93,1.93,3.6,4,4.81,6.46c3.04,6.25,2.4,12.13-1.81,15.9
		c-4.19,3.77-10.39,4.31-15.99,0.65c-5.71-3.74-11-8.1-16.51-12.14c-10.47-7.68-21.42-14.61-32.94-20.59
		c-2.88-1.49-4.32-3.12-4.01-6.6c0.26-2.81-0.39-5.73-0.84-8.57c-1.93-12.18-8.16-20.59-20.27-24.74
		c-7.05-2.42-14.22-4.27-21.41-6.69c8.58,0.46,17.18-0.41,25.65,1.58c12.14,2.87,23.83,6.86,34.81,12.85
		c1.19,0.65,2.53,2.11,3.85,0.95c1.4-1.23-0.04-2.7-0.63-3.88c-8.33-16.74-22.27-26-40.21-29.57c-16.76-3.34-33.28-1.24-49.65,2.95
		c-4.29,1.09-9.52,3.44-12.46-1.09c-2.82-4.33,1.07-8.38,3.52-12.14c1.12-1.72,4.31-3.26,3.05-5.07c-1.48-2.14-4.26,0.07-6.39,0.65
		c-12.46,3.39-22.09,11.16-30.54,20.46c-13.21,14.52-29.43,16.02-47.06,11.15c-6.87-1.9-12.1-6.2-14.95-13.05
		c-0.49-1.18-0.48-3.28-2.39-3.12c-1.35,0.11-1.57,1.76-2.04,2.92c-2.9,7.27-8.51,11.55-15.82,13.48
		c-17.57,4.65-33.53,2.72-46.46-11.63c-8.82-9.8-19.14-17.48-32.18-20.79c-1.45-0.37-3.36-1.89-4.5-0.31c-1.23,1.7,1,2.76,1.9,3.95
		c3.01,4.03,7.64,8.41,4.67,13.36c-3.04,5.07-8.76,2.05-13.37,0.95c-17.86-4.28-35.82-6.47-53.87-1.48
		c-15.45,4.28-27.46,13.16-34.8,27.74c-0.7,1.4-2.1,3.09-0.9,4.38c1.44,1.56,2.94-0.36,4.24-1.05
		c17.12-9.08,35.33-14.14,54.67-15.17c3-0.16,5.95,0.16,9.09,0.97c-5.56,1.23-10.95,2.25-16.24,3.66c-5.4,1.44-10.4,3.95-15.48,6.25
		c-5.46,2.48-8.81,6.48-10.83,11.99c-1.94,5.28-3.9,10.69-3.57,16.24c0.32,5.31-2.1,7.44-6.3,9.67
		c-15.13,8.05-29.29,17.64-42.66,28.38c-3.5,2.81-7.09,5.54-11.99,5.53c-8.63,0-14.07-6.85-11.87-15.21
		c0.93-3.55,2.71-6.69,5.37-9.23c26.25-24.97,39.98-56.75,49.16-90.92c1.07-3.97,2.82-5.64,6.78-6.1c5.17-0.6,10.27-1.79,15.38-2.76
		c0.27-0.05,0.47-0.5,1.05-1.16C216,76.46,204.42,71.5,191.93,69.79c-26.51-3.62-23.06-3.44-33.16,17.2
		c-4.43,9.05-7.41,18.72-10.67,28.25c-7.09,20.81-21.03,36.19-38.95,48.25c-4.36,2.92-9.21,4.95-14.71,4.55
		c-4.67-0.34-8.24-2.41-10.43-6.61c-2.24-4.29-2.83-7.98,2.57-10.73c3.17-1.6,5.86-4.16,8.71-6.36
		c15.62-12.05,26.78-26.46,29.2-47.14c2.19-18.67,10.5-35.41,20.63-51.18c1.72-2.67,3.64-3.89,6.94-4.06
		c24.36-1.19,47.69,3.04,69.86,13.19c3.21,1.47,5.6,1.19,8.53-0.42c21.22-11.68,43.48-19.85,68.12-19.96
		c19.44-0.08,38.21,4,56.99,8.46c20.97,5,33.51,18.4,40.07,38.27c0.38,1.15,0.32,2.83,1.91,2.83c1.77,0.01,1.37-1.83,1.69-2.92
		c4.15-13.9,12.67-24.53,24.65-32.41c6.92-4.55,15.15-5.53,22.96-7.47c23.57-5.85,47.33-9.23,71.6-4.52
		c16.62,3.22,31.82,10.06,46.62,17.94c2.3,1.23,4.23,2.01,7.01,0.7c21.04-9.92,43.24-14.06,66.5-13.96
		c7.89,0.04,12.4,3.47,15.77,9.64c4.76,8.71,7.95,18.1,11.59,27.29c3.19,8.03,6.71,15.95,9.35,24.16
		c5.02,15.61,14.21,28.09,26.8,38.34c3.63,2.96,6.94,6.33,9.28,10.45C713.87,155.96,712.52,159.18,707.74,160.73z"/>
	<path class="st1" d="M550.46,452.42c-8.06-36.84-20.33-72.39-34.42-107.25c-11.43-28.3-32.76-45.73-63.11-51.78
		c-19.2-3.82-38.58-4.45-58.04-4.43c-14.23-0.03-28.41,0.73-42.55,2.52c-35.48,4.49-61.16,22.23-74.47,55.9
		c-11.71,29.61-21.68,59.85-30.13,90.56c-2.92,10.62-5.08,21.35-4.76,32.48c0.29,10.01,4.63,17.55,12.93,22.94
		c5.17,3.35,10.73,5.98,16.58,7.78c29.77,9.2,58.75,20.4,87.03,33.49c25.77,11.93,51.51,11.39,77.23-0.54
		c26.78-12.42,54.15-23.35,82.49-31.77c6.54-1.94,12.8-4.72,18.71-8.27c8.09-4.88,12.91-11.71,13.9-21.25
		C552.57,465.9,551.92,459.09,550.46,452.42z M499.96,402.01c-2.13,1.07-2.59-1.85-3.72-3.03c-9.39-9.69-21.43-14.3-34.04-17.67
		c-23.68-6.32-47.9-7.66-72.26-7.14c-19.28,0.41-38.48,1.89-57.16,7.13c-13.43,3.76-26.51,8.29-35.63,19.85
		c-0.55,0.7-1.13,1.55-2.15,0.93c-1.2-0.72-0.68-1.88-0.5-2.91c1.9-10.78,6.97-19.96,14.34-27.91
		c13.69-14.77,31.38-21.77,50.57-25.77c12.55-2.61,25.3-3.38,38.81-3.64c24.11,0.55,48.55,3.05,70.65,15.76
		c15.59,8.96,26.8,21.59,31.24,39.46C500.52,398.73,501.76,401.11,499.96,402.01z"/>
	<path class="st1" d="M672.12,401.72c-0.94,17.16-3.53,34.02-11.67,49.54c-11.04,21.03-29.87,30.82-52.56,27.39
		c-8-1.21-13.52-5.7-17.09-12.62c-1.97-3.81-3.81-7.87-4.68-12.03c-5.39-26.02-17.04-49.59-28.23-73.36
		c-5.22-11.08-10.22-22.24-14.29-33.81c-3.59-10.23-8.69-19.75-14.23-29.03c-1.55-2.59-2.21-5.1-2.03-8.13
		c1.16-19.67-0.58-39-9.75-56.78c-6.32-12.25-6.15-10.13-13.03-0.9c-6.46,8.68-9.25,18.93-11.05,30.04
		c-12.98-7-26.32-11.62-40.39-14.11c-6.02-1.06-12.18-1.23-18.1-2.98c-12.11-3.58-19.06-11.81-20.47-24.36
		c-0.82-7.3,0.2-14.39,2.65-21.26c3.41-9.61,10.13-14.73,18.16-14.03c9.72,0.86,17.66,7.98,19.53,17.42
		c0.33,1.66-0.59,4.32,1.43,4.75c2.4,0.51,3.55-2.11,4.61-3.88c2.17-3.61,3.32-7.74,3.33-11.84c0.01-4.86,2.42-5.49,6.4-5.38
		c17.69,0.53,34.01,5.67,49.12,14.63c34.8,20.64,54.06,52.3,63.63,90.67c2.14,8.57,3.36,17.31,4.4,26.07
		c0.16,1.32-0.37,3.5,1.4,3.66c2.3,0.21,1.88-2.25,2.13-3.63c5.21-28.45,2.53-56.06-10.26-82.14
		c-18.34-37.39-48.77-60.19-88.54-70.91c-16.72-4.5-32.89-10.31-48.71-17.36c-29.04-12.91-58.94-13.46-88.14-1.78
		c-19.9,7.96-39.9,15.2-60.43,21.33c-65.74,19.62-104.17,82.89-91.74,150.26c0.3,1.6-0.34,4.39,2.11,4.22
		c2.28-0.16,1.47-2.86,1.66-4.5c4.15-36.96,16.36-70.42,43.36-97.07c19.14-18.9,41.89-30.85,69.12-33.15
		c1.61-0.14,3.24-0.08,4.84-0.26c4.23-0.48,6.2,0.96,6.16,5.6c-0.03,4.51,1.36,8.9,4.01,12.69c0.88,1.25,1.77,3.22,3.6,2.81
		c1.88-0.43,1.52-2.55,1.75-4.06c1.33-8.72,6.43-14.36,14.58-17.09c9.12-3.04,17.43,0.61,21.54,9.34c3.5,7.46,5.01,15.4,4.33,23.64
		c-1.22,14.8-10.02,24.25-25.2,26.62c-12.62,1.98-25.38,3.27-37.25,8.46c-3.95,1.73-8.11,3.26-11.59,5.72
		c-4.38,3.1-5.09,1.11-5.7-2.82c-1.62-10.52-5.72-20.03-12.26-28.44c-4.48-5.76-5.04-5.78-8.8,0.32
		c-7.16,11.61-9.94,24.61-11.44,37.92c-0.85,7.52-0.83,15.1-0.33,22.66c0.11,1.58,0.41,3.18-0.66,4.67
		c-11.22,15.59-15.98,34.13-23.52,51.4c-8.48,19.44-18.49,38.2-26,58.09c-3.24,8.6-5.93,17.35-8.06,26.29
		c-0.59,2.44-1.24,4.87-2,7.26c-5.82,18.43-15.83,23.6-35.08,21.54c-21.65-2.31-34.3-16.42-41.66-35.47
		c-9.21-23.86-9.86-48.87-7.42-74c0.29-2.96,0.33-7.66,3.78-8.15c2.92-0.42,4.09,3.96,5.65,6.48c2.47,3.98,4.58,8.18,7.13,12.09
		c1.73,2.67,3.73,5.98,7.49,5.11c4.07-0.93,4.46-4.89,4.58-8.3c0.3-9.35,0.45-18.72,0.46-28.08c0.02-18.96,1.6-37.73,6.03-56.23
		c9.37-39.11,32.06-68.33,65.06-90.72c37.4-25.39,78.5-40.6,122.95-46.87c50.19-7.08,99.84-4.28,148.54,10.45
		c35.59,10.76,67.64,28.06,96.08,52.19c25.15,21.34,39.02,48.91,46.12,80.45c5.07,22.5,4.89,45.39,4.7,68.27
		c-0.04,4.5,0.05,9,0.97,13.43c0.5,2.4,1.32,4.6,3.88,5.4c2.73,0.86,4.44-1.05,5.97-2.78c4.34-4.91,6.62-11.11,10.22-16.49
		c1.2-1.81,1.86-5.08,4.6-4.46c2.44,0.55,2.68,3.69,3.09,5.9C673.04,378.66,672.75,390.22,672.12,401.72z"/>
	<path class="st2" d="M311.23,592.73c-4.75,5.38-8.17,10.78-10.53,16.81c-1.08,2.77-1.61,3.48-4.73,1.21
		c-12.45-9.06-26.17-14.6-42.08-12.65c-5.45,0.67-9.84,3.24-13.45,7.07c-2.26,2.4-4.26,2.86-7.02,1.19
		c-10.52-6.37-21.09-12.65-31.6-19.03c-3.14-1.9-4.16-4.3-3.68-8.44c0.8-6.86-2.48-13.04-7.16-17.88
		c-10.63-10.99-22.13-20.65-39.01-18.8c-2.19,0.24-3.36-1.08-4.51-2.36c-7.57-8.36-14.66-17.11-21.17-26.33
		c-1.06-1.5-1.45-3.03-1.52-4.97c-0.64-17.23-6.29-31.72-23.01-39.56c-2.69-1.26-2.76-3.72-3.57-5.65
		c-7.08-16.87-12.29-34.33-15.57-52.33c-0.55-3.04-2.71-8.28,0.62-9.08c3.07-0.74,2.79,4.9,3.82,7.78
		c11.68,32.58,29.39,61.42,53.21,86.56c26.95,28.43,58.38,50.63,93.45,67.88c23.82,11.71,48.67,20.58,74.25,27.51
		C308.83,591.89,309.67,592.21,311.23,592.73z"/>
	<path class="st2" d="M713.77,405.59c-0.92,5.66-1.69,11.37-3.06,16.93c-3.65,14.77-8.05,29.29-14.39,43.19
		c-0.81,1.78-1.58,2.91-3.54,3.53c-12.98,4.08-23.08,26.44-21.94,37.71c0.29,2.83-0.36,5.12-2.12,7.47
		c-6.21,8.32-12.67,16.4-19.55,24.19c-2.41,2.73-4.72,3.67-8.31,3.51c-17.36-0.76-38.87,15.38-43.17,32.11
		c-0.27,1.04-0.97,2.29-0.64,3.12c2.76,7.08-2.67,9.28-7.01,12.22c-9,6.08-18.38,11.53-27.85,16.83c-2.03,1.13-3.98,1.8-5.86-0.18
		c-12.03-12.65-25.96-9.2-39.97-4.68c-6.17,1.99-11.66,5.38-17.07,8.86c-1.54,0.99-3.16,2.65-4.15-0.25
		c-2.2-6.47-6.05-11.93-10.77-17.49c14.49-4.11,28.37-8.15,41.91-13.28c32.31-12.26,62.64-27.97,90.41-48.84
		c23.25-17.48,43.59-37.55,60.56-61.08c13.87-19.24,24.93-39.96,31.89-62.73c0.21-0.69,0.38-1.42,0.74-2.02
		c0.69-1.14,0.77-3.28,2.67-2.8C714.3,402.34,713.99,404.26,713.77,405.59z"/>
	<path class="st1" d="M437.81,587.73h-19l-28.5,20.84l8.81-20.84h-29.86c5.74,5.24,6.03,12.18,4.03,17.58l-18.78,43.94
		c-3.47-1.95-6.79-4.22-9.99-6.87c-16.11-13.32-16.15-33.04,0.11-46.05c19.12-15.29,41.44-18.99,65.04-16.48
		C419.56,580.91,429.06,583.35,437.81,587.73z"/>
	<path class="st1" d="M450.1,643.06c-4.81,4.14-10.21,7.27-16.1,9.58c-4.34,1.7-8.69,3.35-13.27,4.32
		c-7.77,1.65-15.57,2.89-19.67,2.57c-17.58-0.27-32.2-2.72-44.9-9.39h16.28l10.28-23.59l10.72,23.59h22.82l-16.46-33.17l40.45-27.94
		c3,1.65,5.91,3.54,8.7,5.71C466.99,608.71,467.41,628.2,450.1,643.06z"/>
	<path class="st2" d="M259.48,171.04c-0.13,0.47-0.26,0.94-0.38,1.41c-6.37,1.27-12.68,1.16-18.48-2.56
		c-5.99-3.85-7.5-10.07-8.05-16.64c-0.1-1.21,0.54-2.07,1.74-2.37c1.29-0.32,2.53-0.31,3.18,1.15c0.73,1.63,1.41,3.28,2.1,4.93
		c2.44,5.78,6.84,9.41,12.62,11.53C254.62,169.37,257.05,170.19,259.48,171.04z"/>
	<path class="st2" d="M562.87,156.22c-2.31,14.28-12.48,19.37-27.9,15.49c1.73-2.03,4.31-2.16,6.26-2.6
		c8.39-1.91,13.31-7.34,16.21-14.92c0.91-2.39,1.9-4.06,4.53-3.01C564.62,152.23,563.18,154.32,562.87,156.22z"/>
	<path class="st0" d="M499.96,402.01c-2.13,1.07-2.59-1.85-3.72-3.03c-9.39-9.69-21.43-14.3-34.04-17.67
		c-23.68-6.32-47.9-7.66-72.26-7.14c-19.28,0.41-38.48,1.89-57.16,7.13c-13.43,3.76-26.51,8.29-35.63,19.85
		c-0.55,0.7-1.13,1.55-2.15,0.93c-1.2-0.72-0.68-1.88-0.5-2.91c1.9-10.78,6.97-19.96,14.34-27.91
		c13.69-14.77,31.38-21.77,50.57-25.77c12.55-2.61,25.3-3.38,38.81-3.64c24.11,0.55,48.55,3.05,70.65,15.76
		c15.59,8.96,26.8,21.59,31.24,39.46C500.52,398.73,501.76,401.11,499.96,402.01z"/>
</g>
<path class="st2" d="M452.9,593.98c-13.18-11.25-28.77-16.27-45.7-17.41c-23.43-1.59-45.52,1.81-64.59,17.24
	c-18.14,14.69-17.52,38.69,1.28,52.45c16.49,12.07,35.16,16.04,55.64,16.85c18.56-1.16,37-4.78,52.37-17.39
	C469.69,631.11,471.41,609.79,452.9,593.98z M344.52,642.38c-16.11-13.32-16.15-33.04,0.11-46.05
	c19.12-15.29,41.44-18.99,65.04-16.48c9.89,1.06,19.39,3.5,28.14,7.88h-19l-28.5,20.84l8.81-20.84h-29.86
	c5.74,5.24,6.03,12.18,4.03,17.58l-18.78,43.94C351.04,647.3,347.72,645.03,344.52,642.38z M450.1,643.06
	c-4.81,4.14-10.21,7.27-16.1,9.58c-4.34,1.7-8.69,3.35-13.27,4.32c-7.77,1.65-15.57,2.89-19.67,2.57
	c-17.58-0.27-32.2-2.72-44.9-9.39h16.28l10.28-23.59l10.72,23.59h22.82l-16.46-33.17l40.45-27.94c3,1.65,5.91,3.54,8.7,5.71
	C466.99,608.71,467.41,628.2,450.1,643.06z"/>
</svg>
