<?xml version="1.0" encoding="utf-8"?>
<!-- Generator: Adobe Illustrator 24.0.2, SVG Export Plug-In . SVG Version: 6.00 Build 0)  -->
<svg version="1.1" id="Layer_1" xmlns="http://www.w3.org/2000/svg" xmlns:xlink="http://www.w3.org/1999/xlink" x="0px" y="0px"
	 viewBox="0 0 48 34" style="enable-background:new 0 0 48 34;" xml:space="preserve">
<style type="text/css">
	.st0{fill:#010101;}
	.st1{fill:#FFFFFF;}
	.st2{fill:#972C27;}
</style>
<g>
	<path class="st0" d="M19.46,32.73l-3.65-8.02l-3.43,8.02H0.42c0,0,6.25-14.64,9.21-21.55c0.09-0.22,0.18-0.43,0.27-0.63
		c1.27-3.44-0.24-7.16-5.25-8.72c-0.45-0.2-1.21-0.4-1.21-0.4h22.31l-2.84,6.64l8.88-6.64h15.78l-21.8,15.06l8.07,16.25H19.46z"/>
	<path class="st1" d="M20.11,32.03l-4.25-9.36l-4.08,9.36H1.62l9.11-21.32c1.09-2.96,0.35-6.49-3.39-8.57h17.2l-3.34,8.01
		l10.86-8.01h13.21l-20.56,14.2l7.79,15.69H20.11z"/>
	<path class="st2" d="M20.76,31.32l-4.89-10.76l-4.69,10.76H2.83l8.74-20.45c0.91-2.46,0.78-5.63-1.84-8.02h13.62l-4.02,9.51
		l13-9.51h10.64L23.66,16.19l7.51,15.13H20.76z"/>
</g>
</svg>
