<?xml version="1.0" encoding="utf-8"?>
<!-- Generator: Adobe Illustrator 24.3.0, SVG Export Plug-In . SVG Version: 6.00 Build 0)  -->
<svg version="1.1" id="Layer_1" xmlns="http://www.w3.org/2000/svg" xmlns:xlink="http://www.w3.org/1999/xlink" x="0px" y="0px"
	 viewBox="0 0 1404.06 1006.09" style="enable-background:new 0 0 1404.06 1006.09;" xml:space="preserve">
<style type="text/css">
	.st0{fill:none;}
	.st1{fill:#030303;}
	.st2{fill:#FFFFFF;}
	.st3{fill:#BEC6C9;}
	.st4{fill:#BC2026;}
	.st5{fill:#BD1015;}
</style>
<g>
	<polygon class="st0" points="899.13,560.95 899.42,560.86 899.15,560.72 	"/>
	<path class="st0" d="M924.08,726.49c-0.06-0.01-0.12-0.03-0.18-0.06C923.95,726.46,924.02,726.48,924.08,726.49z"/>
	<path class="st0" d="M924.11,725.42c0.09-0.09,0.18-0.17,0.25-0.24l0,0l0,0C924.29,725.25,924.2,725.34,924.11,725.42z"/>
	<path class="st1" d="M1397.75,648.02c-2.37-8.28-5.84-15.8-12.21-21.9c-24.92-23.82-49.5-48-76.81-69.15
		c-1.45-1.12-2.79-2.57-4.44-3.21c-8.05-3.13-8.35-9.02-7.59-16.63c2.46-24.85,0.36-49.18-11.02-72
		c-7.04-14.15-17.63-25.32-29.56-35.37c-3.94-3.33-7.86-6.69-12.09-10.29c-0.76,19.53-5.68,37.73-15.81,55.98
		c-4.52-18.29-11.73-33.65-22.93-46.83c-24.71-29.07-56.4-45.87-93.79-52.31c-1.52-0.26-2.59-0.35-3.28-2.2
		c-7.12-19.03-20.2-32.51-39.11-40.99c5.92-4.57,11.6-9.01,16.59-14.25c15.12-15.88,19.28-39.75,9.88-57.15
		c-4.06-7.52-10.04-13.16-17.21-17.67c-18.38-11.53-37.93-20.97-58.24-28.17c-32.7-11.59-61.35-30.04-89.75-49.18
		c-13.25-8.93-26.09-18.41-38.65-28.32c-13.95-11.01-23.3-24.78-28.11-41.89c-4.31-15.35-10.46-29.92-21.93-41.45
		c-27.42-27.55-60.5-40.86-99.49-38.97c-23.64,1.14-45.84,7.52-66.82,18.3c-3.68,1.9-7.21,4.15-10.55,6.6
		c-7.5,5.49-11.1,13.06-11.11,22.34c-0.01,4.49-0.18,8.99,0.06,13.47c0.16,3.16-0.86,3.98-3.95,3.51
		c-16.64-2.54-33.4-3.86-50.2-4.55c-38.03-1.57-75.89-0.01-113.36,7.12c-3.46,0.66-5.22,0.09-7.33-2.85
		c-24.07-33.62-54.81-58.59-94.36-72.02c-6.23-2.12-12.8-2.58-19.02-4.62h-18c-2.8,1.94-6.21,1.61-9.31,2.45
		c-16.54,4.51-29.92,14.13-42.07,25.77c-6.74,6.46-13.36,13.1-18.98,20.52c-13.96,18.44-33.12,28.25-54.77,34.23
		c-15.62,4.31-31.57,6.56-47.69,7.8c-2.11,0.16-3.9-0.46-5.76-1.19c-4.51-1.75-9.1-3.22-13.94-3.63
		c-15.42-1.29-22.99,6.37-22.33,21.86c0.74,17.64,8.64,31.06,22.89,41.08c17.33,12.18,37.05,18.45,57.41,23.02
		c8.52,1.91,17.18,3.2,26.44,4.89c-4.51,3.49-8.77,6.56-12.78,9.93c-7.77,6.53-15.47,13.15-23.04,19.92
		c-2.02,1.8-3.9,2.55-6.64,2.43c-19.79-0.8-39.59-1.41-59.38-2.08c-1.3-0.04-2.6,0-4.76,0c2.77,4.37,5.19,8.24,7.66,12.07
		c5.95,9.22,11.75,18.54,17.97,27.58c2.3,3.35,2.05,5.41-0.51,8.51c-31.78,38.53-56.84,80.98-73.88,128.03
		c-4.13,11.41-8.03,22.91-10.6,34.77c-0.9,4.19-2.95,5.42-6.87,6.07c-19.85,3.27-39.65,6.86-59.46,10.35
		c-1.11,0.19-2.19,0.54-3.93,0.98c13.7,9.69,26.97,19.07,40.24,28.44c5.03,3.56,9.91,7.36,15.16,10.54
		c3.35,2.04,4.22,4.37,3.84,8.12c-1.7,17.09-1.77,34.23-1,51.38c1.93,42.86,10.73,84.37,24.52,124.9
		c7.28,21.4,15.77,42.32,25.86,62.53c2.43,4.87,1.58,6.99-2.49,9.87c-7.56,5.35-14.7,11.29-22.66,17.49
		c15.33,4.94,29.78,9.77,44.35,14.18c3.77,1.14,6.22,3.05,8.42,6.22c26.54,38.25,59.61,70.19,95.88,99.05
		c36.95,29.4,77.56,52.45,121.21,70.24c3.13,1.28,4.59,2.45,4.31,6.36c-0.91,12.25-1.16,24.55-1.67,36.8
		c1.62,0.85,2.66-0.39,3.75-0.88c15.76-7.04,31.49-14.14,47.2-21.31c2.52-1.15,4.84-1.5,7.64-0.77
		c36.28,9.47,73.33,12.72,110.68,13.7c36.99,0.96,73.87-0.71,110.67-4.37c12.58-1.25,25.12-3.01,37.67-4.52
		c1.62-0.2,3.21-0.7,4.78,0.49c15.59,11.81,31.76,22.85,46.97,35.18h1c2.21-10.22,6.31-19.85,9.32-29.82
		c1.72-5.69,2.36-12.94,6.25-16.4c3.9-3.49,11.2-3.21,17.03-4.46c77.92-16.75,153.88-39.84,227.6-70.25
		c5.94-2.44,12.47-1.48,18.72-1.84c62.33-3.69,124.37-9.58,185.23-24.26c25.74-6.21,50.95-14.07,73.06-29.35
		c27.33-18.89,45.17-44.18,51.23-77.2c0.69-3.74,1.32-7.67,0.9-11.39c-0.4-3.46,1.03-4.53,3.66-5.79
		c20.9-9.96,41.25-20.85,58.34-36.85c8.92-8.35,15.98-17.83,17.76-30.39c0.05-0.37,0.59-0.67,0.9-1v-9
		C1397.59,652.66,1398.35,650.13,1397.75,648.02z M1239.53,503.1c8.26-18,13.35-36.66,11.99-56.7c-0.2-0.14-0.41-0.29-0.62-0.44
		c0.1-0.11,0.27-0.33,0.31-0.3c0.24,0.12,0.45,0.3,0.67,0.45c16.66,20.82,29.2,43.73,30.24,70.86c0.8,20.65-7.61,37.86-34.47,43.28
		c-13.14,2.64-26.34,1.72-39.55-0.63c-4.82-0.86-3.71-1.98-1.58-4.63C1219.47,538.94,1230.9,521.91,1239.53,503.1z M1099.62,435.35
		c-0.07-11.61-0.03-23.21-0.06-34.82c-0.01-1.33-0.11-2.66-0.23-3.98c-0.86-9.52-0.84-9.61,8.71-6.52
		c19.13,6.21,36.87,15.25,52.83,27.45c19.52,14.92,36.52,32.19,47.23,54.74c3.96,8.36,5.94,17.11,3.5,26.4
		c-1.92,7.34-6.23,10.9-13.73,11c-8.98,0.12-17.78-1.75-26.65-2.74c-12.64-1.4-25.25-3.11-37.9-4.5c-3.94-0.44-6.92-0.96-8.43-5.67
		c-2.45-7.69-6.42-14.81-10.67-21.72c-9.89,15.49-25.63,23.51-40.64,32.55c-11.41,6.88-23.38,9.89-36.83,9.01
		c-13.56-0.88-27.21-0.04-40.77-1.79c-2.74-0.35-3.6-1.7-4.23-3.78c-4.8-15.99-15.63-27.66-27.48-38.65
		c-11.17-10.37-23.11-19.78-35.09-29.18c-3.06-2.4-4.05-1.38-5.52,1.13c-4.25,7.26-5.24,15.51-7.1,23.48
		c-1.56,6.71-2.58,13.55-4.26,20.23c-2.57,10.21-10.3,14.05-21.15,10.74c-7.24-2.22-13.44-6.18-19.01-11.3
		c-16.45-15.13-33.57-29.45-51.09-43.33c-13.85-10.98-27.81-21.77-42.49-31.63c-16.61-11.16-35.05-17.95-54.5-22.06
		c-23.77-5.01-47.86-6.67-72.12-5.73c-8.77,0.33-17.51,1.2-26.28,1.58c-2.83,0.12-3.26,2.28-3.81,3.91
		c-3.79,11.08-6.65,22.46-8.18,34.03c-2.33,17.6-3.8,35.29-2.84,53.09c1.09,19.99,2.8,39.91,5.48,59.79
		c6.36,47.2,17.16,93.46,27.99,139.75c4.79,20.46,9.25,41.02,13.04,61.69c2.43,13.31,3.61,26.85,4.55,40.4
		c1.39,20.01,0.06,39.78-5.67,58.9c-6.66,22.25-20.03,40.02-40.06,52.22c-22.99,14.01-48.05,19.83-74.83,17.2
		c-21.13-2.07-41.09-8.62-60.29-17.54c-34.03-15.83-64.48-37.06-93.01-61.29c-14.58-12.38-28.61-25.31-41.86-39.06
		c-17.21-17.86-32.01-37.29-39.12-61.64c-4.77-16.34-5.55-32.91-3.76-49.66c4.45-41.66,22.13-78.55,41.64-114.76
		c11.33-21.05,23.42-41.62,38.29-60.43c12.27-15.53,26.03-29.64,40.76-42.86c14.05-12.61,29.07-23.94,44.85-34.22
		c28.18-18.35,58.21-33.05,89.68-44.85c1.28-0.48,2.64-1.07,3.65,0c0.8,0.85,0.41,2.19,0.1,3.32c-1.13,4.11-2.33,8.18-2.89,12.44
		c-0.39,2.92-2.02,4.91-4.91,6.57c-25.62,14.73-46.39,34.98-64.7,57.9c-11.34,14.19-21.32,29.32-30.39,45.05
		c-0.49,0.85-0.82,1.8-1.22,2.7c-0.12,0.38-0.39,1.06-0.32,1.1c0.61,0.33,0.67-0.18,0.76-0.61c11.5-13.01,22.46-26.52,35.05-38.54
		c16.79-16.02,34.42-30.99,54.16-43.32c1.62-1.01,3.46-3.03,5.19-1.79c1.53,1.09,0.05,3.37-0.2,5.14c-2.42,17.01-5.04,34-6.31,51.16
		c-0.36,4.94-1.13,9.85-1.61,14.78c-0.22,2.31-0.36,4.66-0.23,6.97c0.17,3.04,1.53,6.09,4.73,6.01c2.95-0.07,3.87-3.27,4.13-5.99
		c2.53-27.29,7.92-54.06,16.41-80.05c10.83-33.19,26.73-63.57,53.72-86.85c10.77-9.29,22.62-16.29,37.73-14.5
		c15.07,1.79,30.03,4.13,44.59,8.53c26.03,7.85,50.64,19.22,75.24,30.58c33.75,15.57,67.46,31.26,101.22,46.8
		c2.81,1.29,5.91,2.07,8.95,2.69c1.92,0.39,4.07,0.17,5.18-1.98c1.24-2.38-1.03-3.3-2.21-4.38c-7.3-6.68-15.82-11.68-24.1-16.99
		c-1.58-1.01-3.12-1.73-3.45-4.23c3.92,0,7.8-0.29,11.63,0.05c26.67,2.34,52.34-1.52,77-12.02c1.61-0.68,4.13-3.15,4.14,1.51
		c0.01,11.51,7.27,18.93,16.53,22.72c33.73,13.81,67.88,26.54,101.81,39.84c4.92,1.92,9.85,3.72,14.9,5.22
		C1097.93,442.28,1099.66,440.73,1099.62,435.35z M1148.62,527.82c-2.02-3.95-1.06-4.78,2.93-4.46c2.98,0.24,5.99,0.05,8.99,0.05
		c8.87-0.33,17.61,0.54,25.99,3.55c10.67,3.84,13.8,10.25,10.44,20.96c-3.94,12.57-12.69,21.12-23.48,27.98
		c-2.58,1.65-4.75,0.14-7.03-0.56c-3.46-1.07-8.1-1.33-9.94-3.72c-1.55-2,0.32-6.53,0.41-9.95
		C1157.26,549.64,1154.04,538.4,1148.62,527.82z M1131.8,534.7c5.24,10.68,8.44,21.13,8.95,32.71c-11.07-2.89-21.69-5.66-33.23-8.67
		C1117.77,552.15,1125.48,544.57,1131.8,534.7z M1094.88,554.81c-2.14,1.29-4.25,0.68-6.28,0.28c-10.06-1.97-20.15-3.82-30.36-4.85
		c-2.41-0.25-4.07-0.99-3.91-3.86c0.06-1.14-0.38-2.29-0.51-3.45c-1.03-8.9-0.99-8.82,7.18-12.31
		c16.49-7.04,29.68-18.65,42.38-30.89c4.47-4.3,4.4-4.37,7.02,1.15c3.42,7.2,5.16,14.31,5.22,21.06
		C1115.17,536.96,1107.29,547.28,1094.88,554.81z M1043.81,547c0.03,1.76-1.58,1.33-2.65,1.24c-7.08-0.59-14.15-1.23-22.06-1.93
		c6.12-5.83,11.69-10.78,16.44-16.53c1.36-1.65,2.59-1.95,3.99-0.21C1043.67,534.71,1043.7,540.89,1043.81,547z M1005.42,545.4
		c-0.87,0.79-1.77,0.74-2.74,0.78c-0.49,0.03-0.99,0.01-1.49,0.01h-21.82c1.66-4.79,3.35-9.39,4.84-14.05
		c0.54-1.71,1.66-1.65,3.01-1.79c5.93-0.59,11.8-1.64,17.22-4.17c2.3-1.08,3.15-0.44,4.14,1.56
		C1010.96,532.53,1009.34,541.81,1005.42,545.4z M899.33,560.35c22.41-30.03,30.96-63.94,31.37-101.53
		c5.13,5.91,9.67,11.02,14.07,16.26c7.7,9.15,14.85,18.7,20.98,29.01c4.41,7.42,6.59,15.46,7.59,23.89
		c0.63,5.28-1.18,9.93-3.46,14.69c-2.77,5.77-7.57,5.2-12.5,5.83c-17.9,2.3-35.58,5.76-52.82,11.18
		C903.11,560.14,901.74,560.51,899.33,560.35z M899.43,560.86l-0.29,0.09l0.02-0.23L899.43,560.86z M636.87,546.86
		c7.66-7.15,15.24-14.38,22.71-21.71c1.69-1.66,2.54-1.85,4.23,0.06c13.09,14.82,26.74,29.18,39.33,44.42
		c8.24,9.96,10.37,21.95,4.48,34.03c-5.84,11.98-15.86,18.24-29.87,18.95c-14.59-1.05-26.4-8.32-34.84-20.37
		c-3.72-5.31-3.23-12.69-4.22-19.19c-1.54-10.16-2.49-20.41-3.84-30.6C634.53,550.09,635.12,548.49,636.87,546.86z M633.56,525.41
		c-0.85-25.52-0.25-49.39,1.05-73.26c0.08-1.45-0.08-3.54,2.27-2.56c10.32,4.31,20.48,8.82,24.08,20.98
		c1.16,3.94,0.28,7.63-0.86,11.2C654.95,497.97,644.76,511.14,633.56,525.41z M710.57,550.82c-12.23-11.08-23.8-22.72-32.67-36.77
		c-5.46-8.64-8.2-18.02-7.63-26.86c0.48-3.89,0.45-6.35,1.04-8.83c4.56-19.37,12.47-24.18,30.92-27.91
		c21.68-4.37,39.41,3.69,54.56,18.51c11.28,11.03,9.91,26.17,0.24,37.22c-13.23,15.14-27.46,29.4-41.21,44.09
		C714.1,552.1,712.85,552.89,710.57,550.82z M733.92,560.32c11.87-14.15,23.93-28.15,35.8-42.3c1.93-2.29,3.13-2.95,5.83-0.73
		c15.16,12.48,30.18,25.11,44.95,38.05c12.52,10.95,11.36,27.79,4.82,39.6c-7.57,13.66-20.02,20.8-35.58,22.44
		c-3.63,0.39-7.24,1.09-11.69,0.67c-19.96,0.99-35.3-8.01-46.1-25.42C725.28,581.86,725.83,569.98,733.92,560.32z M792.52,514.12
		c-15.2-16.07-15.94-32.93-2.37-50.46c2.76-3.57,5.94-6.74,9.38-9.65c0.85-0.72,1.87-1.24,2.83-1.86c1.17,0.75,2.16,1.34,3.1,1.99
		c20.94,14.36,39.68,31.26,57.26,49.51c1.81,1.87,1.17,2.78-0.11,4.34c-8.79,10.65-17.5,21.36-26.22,32.06
		c-1.17,1.44-1.98,2.65-4.39,1.41C817.64,534.05,803.75,525.98,792.52,514.12z M845.5,561.63c1.11-3.6,3.04-6.84,5.77-9.18
		c10.94-9.42,16.43-22.24,22.36-34.8c2.64-5.59,2.76-5.68,6.72-0.72c5,6.23,8.17,13.17,8.25,23.91
		c-1.63,14.79-10.17,27.95-24.7,37.19c-4.8,3.06-12.28,1.8-16.15-2.05C843.59,571.83,843.91,566.8,845.5,561.63z M739.83,316.23
		c2.15,2.56,4.7,4.68,7.52,6.47c2.62,1.67,5.26,3.32,8.16,5.14c-1.75,0.9-3,0.25-4.36-0.12c-24.38-6.57-48.28-14.91-73.1-19.89
		c-10.59-2.12-21.39-2.76-31.99-4.63c-8.04-1.41-16.01-5.81-17.79-14.01c-2.92-13.46,1.62-23.64,17.01-25.83
		c12.87-1.83,24.39,2.06,36.05,6.85c21.07,8.65,42.42,16.58,63.65,24.82c1.22,0.48,2.4,1.05,3.85,1.68
		c-2.68,1.62-5.22,2.88-7.44,4.56C735.74,305.56,735.25,310.81,739.83,316.23z M752.69,305.6c0.23-1.9,2.05-2.42,3.82-2.27
		c1.53,0.13,2.88,0.67,3.13,2.55c-0.7,1.77-2.21,2.49-3.88,2.28C754.37,307.99,752.47,307.39,752.69,305.6z M1083.19,358.76
		c3.07,3.49,2.84,7.58,1.63,11.73c-0.76,2.61-2.86,2.82-5.14,2.88c-8.51,0.23-16.32-2.5-24.02-5.62
		c-17.8-7.21-35.88-13.39-55.02-16.03c-4.16-0.58-8.3-0.48-12.46-0.69c-19.91,0.15-38.77,5.36-56.2,14.35
		c-16.78,8.66-34.22,10.87-52.53,10.02c-20.46-0.95-40.29-5.27-59.85-11.06c-7.74-2.3-15.62-4.21-22.83-8.02
		c-1.97-1.04-4.87-1.62-4.16-4.72c0.69-3.05,3.53-2.05,5.45-1.91c18.74,1.36,37.48,2.55,56.28,1.91
		c17.08-0.57,34.01-2.13,50.28-7.93c7.5-2.68,14.18-6.97,21.32-10.37c17.14-8.19,35.1-13.07,54.13-12.56
		c15.36,0.41,29.97,3.94,43.44,12.07c11.67,7.04,24.47,11.44,37.98,13.92C1069.9,348.28,1077.4,352.2,1083.19,358.76z
		 M785.07,335.97c4.77-2.96,9.57-3.18,13.98-4.51c5.04-1.52,10.38-2.23,15.23-4.2c5.15-2.08,9.82-1.68,14.75,0.21
		c8.75,3.36,17.57,6.58,27.22,11.71C831.76,342.03,808.71,342.42,785.07,335.97z M674.66,73.77c4.27-15.45,13.43-26.88,28.05-33.54
		c13.85-6.31,28.48-7.91,43.63-7.23c16.55,0.75,32.47,3.77,47.78,10.1c5.99,2.48,10.48,6.2,13.9,12.01
		c13.3,22.57,27.88,44.33,44.05,64.98c0.69,0.87,1.81,1.55,1.25,3.08c-30.31-6.08-51.62-24.12-66.62-50.87
		c-1.98,6.37-1.28,11.99,0.6,17.45c1.88,5.42,4.08,10.73,6.5,17.02c-7.06-2.65-13.43-5.06-19.81-7.43
		c-26.19-9.74-53.31-15.55-80.98-18.95c-4.94-0.61-9.88-1.4-14.83-1.52C674.1,78.77,673.75,77.08,674.66,73.77z M199.15,156.88
		c-10.62-3.15-20.78-7.03-30.15-13.02c-9.64-6.17-13.81-15.04-13.64-26.19c0.08-5.11,2.55-7.57,7.81-7.47
		c6.97,0.12,13.93,0.85,20.89,0.9c22.79,0.17,45.12-2.56,66.51-10.98c3.9-1.54,5.08-0.54,4.11,3.64c-1.08,4.59-2.87,8.98-5.56,13.47
		c5.41,0.55,7.72-3.6,10.6-6.04c13.89-11.78,24.12-26.6,34.69-41.3c9.8-13.62,20.42-26.91,34.53-36.64
		c10.22-7.04,21.57-7.9,33.65-6.59c12.21,1.32,24.02,3.53,35.46,8.14c16.14,6.5,28.42,17.74,39.71,30.52
		c15.67,17.74,29.54,37.08,46.91,53.31c12.76,11.94,21.19,14.8,39.41,13.33c-7.72-4.3-14.58-8.73-20.21-14.74
		c-4.08-4.35-7.66-9.09-9.78-14.75c-1.8-4.82-1.15-5.91,3.93-6.33c21.16-1.75,42.37-2.89,63.56-4.18
		c18.66-1.13,37.28-0.4,55.91-0.81c16.5-0.36,32.62,2.8,48.82,5.24c13.06,1.97,26.1,4.09,39.21,5.69
		c20.18,2.48,40.17,6.02,60.01,10.29c20.23,4.35,40.1,10.11,59.57,17.14c24.65,8.89,47.83,20.92,70.82,33.35
		c16.97,9.17,33.73,18.71,49.03,30.54c5.88,4.55,11.43,9.52,17.74,13.5c1.54,0.97,2.51,2.26,2.02,4.13
		c-0.47,1.75-2.18,1.26-3.36,1.45c-3.26,0.52-6.56,0.81-10.71,1.3c17.08,3.81,33.17,8.2,49.05,13.33
		c19.92,6.44,38.08,16.29,55.14,28.24c11.62,8.15,15.7,19.91,13.7,33.45c-0.99,6.78-6.41,11.16-12.74,13.56
		c-16.6,6.29-33.82,10.16-51.58,10.1c-19.06-0.07-37.77-3.3-55.99-9.08c-4.8-1.53-7.46-5.27-9.67-9.37
		c-5.44-10.11-7.64-21.25-10.28-32.28c-2.67-11.13-2.06-22.88-7.69-33.5c-6.49-12.25-13.91-23.51-25.03-32.01
		c-0.52-0.39-1.15-0.63-1.76-0.86c-0.23-0.09-0.54,0.04-1.49,0.15c3.89,5.22,7.26,10.41,9.41,16.22c3.48,9.42,3.87,19.35,4.64,29.21
		c0.07,0.91,0.36,2.12-0.97,2.49c-1.36,0.38-2.42,0.05-3.52-1.07c-6.85-6.99-14.09-13.58-21.66-19.78
		c-22.47-18.41-47.1-33.06-74.48-42.96c-18.04-6.52-36.7-10.12-55.72-12c-1.08-0.11-2.18-0.01-4.67-0.01
		c10.12,3.84,19.02,7.05,27.79,10.59c37.85,15.31,74.35,33.2,106.48,58.8c16.64,13.27,31.28,28.58,41.57,47.5
		c3.29,6.06,5.81,12.44,6.84,19.41c1.71,11.57-3.57,17.32-15.23,17.71c-16.06,0.53-30.83-4.67-45.63-9.87
		c-26.25-9.23-49.43-24.51-73.68-37.67c-19.24-10.43-38.36-21.09-57.43-31.81c-19.24-10.82-38.29-21.95-57.54-32.75
		c-22-12.35-45.42-21.04-69.93-26.97c-16.04-3.88-32.27-6.38-48.71-4.81c-15.87,1.52-30.83,5.95-40.85,19.87
		c-4.11,5.7-3.99,11.73-1.58,18.25c4.29,11.65,13.48,17.29,24.36,21.31c1.58-1.42,0.95-3.19,0.9-4.7
		c-0.48-13.87,7.41-19.67,19.84-20.18c38.99-1.59,76.51,5.25,112.73,20.12c40.78,16.74,79.51,37.38,117.64,59.3
		c2.42,1.39,3.14,4.05,6.02,5.57c-4.07,0.53-7.13,0.04-10.49-1.22c-24.88-9.31-49.85-18.38-74.84-27.42
		c-20.05-7.25-40.17-14.29-60.6-20.45c-14.34-4.32-28.71-8.79-43.6-10.38c-11.8-1.26-28.59,3.57-33.75,15.97
		c-1.4,3.35-1.69,6.29-0.43,9.83c4.06,11.47,7.29,23.2,1.69,35.06c-4.72,10.01-10.89,19.22-17.21,28.27
		c-9.93,14.2-20.21,28.15-30.98,41.75c-3.48,4.4-8.21,6.5-12.77,9.03c-25.29,14.02-49.23,30.06-71.9,48
		c-19.55,15.47-37.92,32.24-55.17,50.22c-17.9,18.65-34.25,38.57-49.03,59.8c-15.38,22.11-28.69,45.35-39.25,70.11
		c-11.12,26.08-19.36,53-23.06,81.24c-0.51,3.88-0.28,7.84-1.47,11.75c-2.61,8.55-9.19,11.76-17.07,7.54
		c-6.25-3.35-10.76-8.77-15.02-14.19c-13.27-16.87-23.8-35.38-32.71-54.91c-12.63-27.72-21.49-56.58-25.63-86.71
		c-2.35-17.08-3.31-34.31-1.5-51.67c1.1-10.55,2.35-21.02,4.79-31.32c0.3-1.28-0.25-3.71,2.47-3.54c2.44,0.16,2.12,2.04,2.42,3.65
		c3,16.36,4.93,32.92,9.03,49.07c2.87,11.32,6.79,22.3,13.11,32.24c0.45,0.71,0.49,2.05,2.1,1.93c3.87-23.15,4.08-46.42,2.27-69.77
		c-0.29-3.81-1.86-6.78-4.99-9.22c-18.47-14.36-28.23-33.68-30.94-56.57c-4.69-39.67,4.76-76.62,23-111.57
		c5.81-11.12,13.73-20.93,22.16-30.24c23.49-25.99,51.94-45.23,83.05-60.81c8.38-4.19,9.04-4,11.76,5.04
		c2.68,8.93,3.74,18.07,2.54,27.43c-0.38,2.95-0.06,5.99-0.06,9.71c5.48-6.06,9.48-12.46,12.44-19.49
		c6.41-15.21,7.4-30.93,4.41-47.09c-1.17-6.34-1.59-12.82-2.27-19.24c-0.19-1.78-0.36-3.24,2.23-4.12
		c18.63-6.34,32.02-19.51,43.65-34.67c2.81-3.66,4.73-3.4,7.41-0.39c5.36,6.04,10.09,12.5,14.42,19.85c0-7.34,0.51-14.72-0.14-22.01
		c-0.6-6.66-2.39-13.23-5.52-19.3c-1.16-2.25-0.81-4.44,0.19-6.7c1.72-3.9,3.16-7.93,4.96-11.79c0.85-1.81,1.05-3.6,0.43-5.29
		c-1.22-3.31-1.8-7.75-6.21-8.07c-4.09-0.3-6.34,3.13-8.02,6.47c-7.33,14.59-14.12,29.48-24.17,42.54
		c-15.75,20.46-35.86,33.85-61.58,37.95C271.96,169.48,235.3,167.61,199.15,156.88z M224.54,210.06
		c8.24-8.65,16.62-17.17,24.76-25.9c2.35-2.52,4.75-2.82,7.98-2.43c13.64,1.63,27.29,2.37,41.06,1c7.39-0.73,14.68-1.86,21.97-3.2
		c2.84-0.52,4.53,0.72,4.21,3.92c0.24,1.79-0.7,3.03-1.92,4.29c-10.53,10.87-22.74,19.58-35.91,26.8
		c-12.7,6.98-25.43,13.83-36.85,22.85c-4.15,3.28-6.34,2.56-8.31-2.17c-3.11-7.5-7.76-13.64-15.42-17.16
		C221.8,216.07,221.35,213.41,224.54,210.06z M157.26,224.06c20.59,0.81,40.18,1.33,59.74,2.46c9.84,0.57,18.02,13.17,15.37,22.51
		c-0.04,0.16,0,0.38-0.09,0.48c-5.49,6-10.97,12-16.48,17.98c-6.4,6.95-14.51,5.93-22.65,4.88c-3.86-0.5-6.5-2.33-8.64-5.76
		C175.82,252.69,166.84,238.96,157.26,224.06z M39.84,448.45c-0.91-0.64-2.02-1.06-2.61-2.82c12.07-2.1,23.85-4.24,35.67-6.18
		c15.68-2.58,31.41-4.82,47.06-7.56c14.32-2.5,25.83,5.67,27.6,20.12c1.77,14.45-2.03,27-13.54,36.37
		c-10.63,8.65-25.19,8.72-36.39,0.81C78.37,475.6,59.11,462.02,39.84,448.45z M114.24,747.11c17.21-12.52,32.51-25.88,49.66-36.75
		c2.85-1.81,5.89-3.15,9.26-3.18c16.37-0.19,39.61,6.8,43.77,28.23c1.97,10.19,0.04,19.52-6.04,27.79c-3.08,4.18-8.09,5-12.97,5.09
		c-12.61,0.23-24.45-3.76-36.44-6.91C145.86,757.26,130.45,752.45,114.24,747.11z M368.43,891.84c-2.65,4.03-3.48,8.6-3.79,13.11
		c-0.49,7.26-0.24,14.56-1.04,21.84c-0.54,4.94-1.46,5.89-6.06,3.43c-7.84-4.19-15.67-8.44-23.24-13.09
		c-15.3-9.37-30.61-18.73-45.35-28.97c-18.12-12.59-35.78-25.76-52.88-39.73c-18.79-15.36-36.29-32.06-53.18-49.43
		c-4.71-4.84-8.87-10.23-13.39-15.27c-1.98-2.21-4.1-4.86-2.46-7.44c1.32-2.07,4.69-1.12,6.98-0.48c6.21,1.71,12.5,3.19,18.87,3.53
		c20.52,1.1,28.52-8.47,34.68-26.32c1.15-3.33,1.3-6.81,1.06-9.74c0.41-18.3-11.85-35.68-29.26-41.94
		c-7.27-2.62-14.63-5.43-22.36-5.67c-8.04-0.24-15.39,2.89-21.96,7.61c-6.01,4.32-12.07,8.57-17.98,13.02
		c-6.63,5.01-8.39,4.46-11.44-3.3c-6.33-16.1-10.66-32.83-15.66-49.33c-5.76-19.02-11.17-38.15-15.51-57.57
		c-3.99-17.81-7.64-35.65-9.98-53.78c-1.8-13.98-3.12-27.94-2.88-42.04c0.07-4.06-1.79-7.95-0.19-12.22
		c1.41-3.76,2.96-4.94,6.41-2.7c4.28,2.77,8.18,6.15,12.98,8.03c22.65,8.85,46.75-5.46,54.84-27.32c4.85-13.11,5.5-26.22-1.57-38.56
		c-8.25-14.38-22.96-19.72-40.22-15.91c-5.28,1.17-10.66,2.03-16.05,2.63c-6.25,0.68-7.43-0.9-5.61-6.89
		c2.14-7.08,4.11-14.23,6.62-21.18c9.54-26.43,21.88-51.48,36.79-75.33c10.23-16.35,21.74-31.75,33.37-47.09
		c1.82-2.41,4.7-3.88,6.41-1.02c5.06,8.42,13.38,10.04,21.83,11.64c4.67,0.88,5.54,2.53,3.11,6.65
		c-7.97,13.51-14.97,27.51-20.28,42.29c-5.87,16.34-8.72,33.24-7.46,50.6c1.74,23.84,5.88,47.3,12.35,70.33
		c0.85,3.02,0.59,5.75-0.63,8.66c-5.71,13.62-8.37,27.91-9.94,42.57c-1.93,18.05-2.4,36.13-1.73,54.19
		c1.25,33.6,6.49,66.47,20.18,97.57c7.31,16.6,16.98,31.54,29,45.12c15.62,17.65,34.7,30.08,56.11,39.49
		c5.27,2.31,10.11,5.84,12.69,11.78c8.48,19.47,20.19,37.01,33.89,53.09c12.8,15.02,26.87,28.87,42.11,41.53
		c9.39,7.81,18.96,15.34,28.83,22.5c1.55,1.11,2.29,2.15,2,4.01c-0.31,2.03-1.9,1.4-3.1,1.6
		C383.66,878.09,374.6,882.45,368.43,891.84z M377.53,963.13c-3.32,1.53-4.34,1.74-4.09-2.71c0.99-17.24,2.03-34.5,2.05-51.76
		c0.02-15.98,9.84-20.07,21.47-21.23c1.31-0.13,2.66-0.02,3.99-0.02c12.01,0.13,22.78,3.78,31.9,11.71
		c12.26,10.65,15.94,32.16-6.14,41.77C410.21,948.06,393.88,955.61,377.53,963.13z M737.25,933.19
		c-3.62,16.13-9.98,31.4-14.89,47.73c-14.25-10.52-28.33-19.78-41.04-30.62c-12.44-10.61-11.42-21.25,0.54-31.45
		c11.06-9.42,34.75-14.27,49.58-0.97C736.38,922.3,738.62,927.06,737.25,933.19z M1000.64,863.06
		c-16.94,10.47-34.97,18.57-53.76,25.16c-38.35,13.47-77.58,23.9-116.91,33.99c-25.23,6.46-50.44,13.01-75.67,19.49
		c-5.86,1.51-7.67,0.13-6.38-5.63c2.94-13.11-3.25-21.31-13.05-29.06c-20.67-16.33-55.04-6.89-67.91,12.1
		c-7.04,10.38-7.28,21.76,0.45,31.77c1.58,2.06,2.66,4.07,1.79,6.32c-0.82,2.14-3.26,1.66-5.2,1.97
		c-19.98,3.11-40.13,4.39-60.26,5.77c-12.27,0.84-24.65,0.15-36.98,0.15v0.03c-11.66,0-23.37,0.62-34.98-0.16
		c-14.02-0.94-28.05-1.89-42.03-3.57c-15.92-1.92-31.78-4.16-47.52-7.23c-1.13-0.22-2.24-0.52-3.37-0.79
		c-1.36-0.32-3.17,0.08-3.25-2.2c-0.05-1.67,0.72-2.59,2.04-3.64c5.48-4.35,10.31-9.23,13.5-15.69c2.88-5.81,3.32-11.67,2.01-17.86
		c-0.44-2.07-1.47-4.65,0.33-6.1c1.45-1.16,3.76-0.28,5.69,0.53c15.23,6.4,30.75,11.9,46.93,15.55c38.12,8.6,74.85,4.91,110.3-11.67
		c10.35-4.84,20.16-10.57,29.61-16.93c1.94-1.31,3.75-1.83,5.98-1.77c16.81,0.48,33.62-0.06,50.36-1.23
		c21.95-1.53,43.89-3.17,65.78-5.54c19.9-2.16,39.78-4.41,59.55-7.44c22.66-3.47,45.23-7.51,67.65-12.46
		c25.49-5.63,50.65-12.34,75.18-21.25c21.96-7.98,43.23-17.41,61.83-31.96c2.85-2.23,5.72-4.46,8.47-6.83
		c1.67-1.44,3.78-2.24,5.46-1.27c1.96,1.15,1.08,3.55,0.65,5.45c-3.35,14.79-13.68,24.73-24.34,34.25
		C1015.58,851.56,1008.7,858.07,1000.64,863.06z M1295.28,742.84c-3.06,17.36-9.32,33.37-20.27,47.34
		c-16.82,21.44-39.15,35.09-64.08,44.98c-29.42,11.67-60.16,17.77-91.51,21.13c-10.87,1.16-21.76,2.11-31.52,3.05
		c-3.49-0.5-7.23,1.54-7.86-0.8c-0.8-2.93,3.39-3.19,5.5-4.25c27.38-13.81,53.66-29.46,77.88-48.27c21.9-17,41.97-35.93,56.33-60.08
		c1.85-3.11,3.83-6.27,4.93-9.67c1.42-4.42,4.37-4.36,7.76-3.58c11.17,2.58,22.49,4.08,33.91,4.69c8.13,0.44,16.34,0.62,24.46,0.09
		C1295.75,737.15,1295.9,739.32,1295.28,742.84z M1330.16,697.09c-19.8,2.36-39.64,4.61-59.64,3c-25.67-2.07-50.46-8.1-74.69-16.78
		c-28.82-10.32-58.09-19.11-88.14-25.21c-21.44-4.35-43.04-7.46-64.89-8.78c-50.27-3.04-99.12,3.85-146.48,21.08
		c-2.75,1-5.43,2.19-8.12,3.7c6.78,0.91,13.51-0.34,20.19-0.95c20.86-1.92,41.72-3.15,62.69-2.62c13.3,0.33,26.47,1.57,39.53,4.02
		c0.99,0.19,2.63-0.54,2.73,1.29c0.1,1.7-1.54,1.47-2.54,1.8c-13.44,4.5-27.15,8.34-39.93,14.61
		c-11.86,5.81-23.11,12.53-33.31,20.75c-1.85,1.49-3.67,3.03-5.45,4.63c-0.89,0.8-1.77,1.61-2.64,2.43
		c-1.74,1.65-3.45,3.35-5.11,5.12c-0.07,0.07-0.16,0.15-0.25,0.24c-0.28,0.25-0.59,0.53-0.55,0.62c0.11,0.2,0.22,0.32,0.34,0.38
		c0.06,0.04,0.12,0.06,0.18,0.07h0.07c0.29,0,0.61-0.21,0.92-0.39c5.67-2.47,11.35-4.91,17.05-7.31c2.85-1.2,5.71-2.38,8.57-3.55
		c5.72-2.34,11.46-4.63,17.24-6.83c8.66-3.3,17.4-6.41,26.25-9.26c18.59-5.99,37.69-9.77,56.8-13.51
		c6.81-1.33,13.61-2.75,20.44-3.91c2.78-0.47,5.57-0.05,8.32,0.92c35.64,12.65,71.29,25.3,107,37.76c2.92,1.03,3.26,2.49,2.54,4.78
		c-6.47,20.42-15.2,39.64-29.3,56.12c-22.98,26.86-52.94,43.26-84.81,56.79c-16.12,6.85-32.74,12.36-49.58,17.2
		c-1.31,0.38-2.89,1.86-3.83-0.07c-0.71-1.46,0.47-2.77,1.62-3.86c7.36-6.96,14.12-14.48,19.74-22.93
		c7.74-11.61,13.1-23.97,11.08-39.09c-4.51,3.71-7.59,8.15-11.67,11.65c-19.39,16.62-42.03,27.18-65.56,36.14
		c-39.09,14.9-79.74,23.56-120.94,30.07c-28.83,4.56-57.78,7.89-86.87,10.27c-21.84,1.79-43.69,3.29-65.6,4.03
		c-11.61,0.4-23.21,1.08-34.81,1.6c-5.81,0.26-6.2-0.56-4.24-6.15c6.1-17.4,13.91-34.28,16.68-52.72
		c0.89-5.89,1.71-11.81,2.22-17.74c3.4-39.47-0.18-78.14-13.49-115.65c-2.54-7.16-5.4-14.21-8.2-21.27
		c-0.76-1.89-1.38-3.72-1.01-5.77c3,0.8,5.09,2.98,7.53,4.64c20.52,14.06,42.52,14.31,64.91,5.88
		c23.95-9.01,44.82-23.65,65.93-37.72c20.2-13.46,40.09-27.35,62.31-37.52c31.8-14.56,64.87-24.2,99.73-27.73
		c36.44-3.69,72.63-1.82,108.54,4.96c36.04,6.81,71.98,14.15,107.97,21.24c22.33,4.4,41.48,15.48,59.72,28.46
		c9.4,6.69,18.77,13.41,28.17,20.11c0.85,0.61,1.67,2.12,2.87,0.95c1.01-0.97,0.02-2.13-0.48-3.16
		c-7.6-15.73-19.28-28.07-32.92-38.55c-13.2-10.14-28.18-16.9-44.32-20.92c-3.53-0.88-3.84-1.78-1.25-4.22
		c1.42-1.34,2.53-3.02,3.77-4.57c1.92-2.4,4.37-3.43,7.44-2.99c18.78,2.69,37.61,4.23,56.57,1.94c9.23-1.11,18.32-2.85,26.81-6.83
		c2.71-1.27,5.1-1.67,7.94-0.08c17.53,9.81,34.22,20.73,47.84,35.74c14.73,16.24,22.46,35.43,22.66,57.32
		C1362.65,681.46,1350.79,694.63,1330.16,697.09z"/>
	<path class="st2" d="M856.25,339.18c-24.49,2.85-47.54,3.24-71.18-3.21c4.77-2.96,9.57-3.18,13.98-4.51
		c5.04-1.52,10.38-2.23,15.23-4.2c5.15-2.08,9.82-1.68,14.75,0.21C837.78,330.83,846.6,334.05,856.25,339.18z"/>
	<path class="st2" d="M755.51,327.84c-1.75,0.9-3,0.25-4.36-0.12c-24.38-6.57-48.28-14.91-73.1-19.89
		c-10.59-2.12-21.39-2.76-31.99-4.63c-8.04-1.41-16.01-5.81-17.79-14.01c-2.92-13.46,1.62-23.64,17.01-25.83
		c12.87-1.83,24.39,2.06,36.05,6.85c21.07,8.65,42.42,16.58,63.65,24.82c1.22,0.48,2.4,1.05,3.85,1.68
		c-2.68,1.62-5.22,2.88-7.44,4.56c-5.65,4.29-6.14,9.54-1.56,14.96c2.15,2.56,4.7,4.68,7.52,6.47
		C749.97,324.37,752.61,326.02,755.51,327.84z"/>
	<path class="st2" d="M232.37,249.03c-0.04,0.16,0,0.38-0.09,0.48c-5.49,6-10.97,12-16.48,17.98c-6.4,6.95-14.51,5.93-22.65,4.88
		c-3.86-0.5-6.5-2.33-8.64-5.76c-8.69-13.92-17.67-27.65-27.25-42.55c20.59,0.81,40.18,1.33,59.74,2.46
		C226.84,227.09,235.02,239.69,232.37,249.03z"/>
	<path class="st2" d="M134.02,488.38c-10.63,8.65-25.19,8.72-36.39,0.81c-19.26-13.59-38.52-27.17-57.79-40.74
		c-0.91-0.64-2.02-1.06-2.61-2.82c12.07-2.1,23.85-4.24,35.67-6.18c15.68-2.58,31.41-4.82,47.06-7.56
		c14.32-2.5,25.83,5.67,27.6,20.12C149.33,466.46,145.53,479.01,134.02,488.38z"/>
	<path class="st2" d="M210.89,763.2c-3.08,4.18-8.09,5-12.97,5.09c-12.61,0.23-24.45-3.76-36.44-6.91
		c-15.62-4.12-31.03-8.93-47.24-14.27c17.21-12.52,32.51-25.88,49.66-36.75c2.85-1.81,5.89-3.15,9.26-3.18
		c16.37-0.19,39.61,6.8,43.77,28.23C218.9,745.6,216.97,754.93,210.89,763.2z"/>
	<path class="st2" d="M426.71,940.89c-16.5,7.17-32.83,14.72-49.18,22.24c-3.32,1.53-4.34,1.74-4.09-2.71
		c0.99-17.24,2.03-34.5,2.05-51.76c0.02-15.98,9.84-20.07,21.47-21.23c1.31-0.13,2.66-0.02,3.99-0.02
		c12.01,0.13,22.78,3.78,31.9,11.71C445.11,909.77,448.79,931.28,426.71,940.89z"/>
	<path class="st2" d="M737.25,933.19c-3.62,16.13-9.98,31.4-14.89,47.73c-14.25-10.52-28.33-19.78-41.04-30.62
		c-12.44-10.61-11.42-21.25,0.54-31.45c11.06-9.42,34.75-14.27,49.58-0.97C736.38,922.3,738.62,927.06,737.25,933.19z"/>
	<path class="st2" d="M1247.65,560.25c-13.14,2.64-26.34,1.72-39.55-0.63c-4.82-0.86-3.71-1.98-1.58-4.63
		c12.95-16.05,24.38-33.08,33.01-51.89c8.26-18,13.35-36.66,11.99-56.7c-0.2-0.14-0.41-0.29-0.62-0.44c0.1-0.11,0.27-0.33,0.31-0.3
		c0.24,0.12,0.45,0.3,0.67,0.45c16.66,20.82,29.2,43.73,30.24,70.86C1282.92,537.62,1274.51,554.83,1247.65,560.25z"/>
	<path class="st2" d="M1196.97,547.92c-3.94,12.57-12.69,21.12-23.48,27.98c-2.58,1.65-4.75,0.14-7.03-0.56
		c-3.46-1.07-8.1-1.33-9.94-3.72c-1.55-2,0.32-6.53,0.41-9.95c0.33-12.03-2.89-23.27-8.31-33.85c-2.02-3.95-1.06-4.78,2.93-4.46
		c2.98,0.24,5.99,0.05,8.99,0.05c8.87-0.33,17.61,0.54,25.99,3.55C1197.2,530.8,1200.33,537.21,1196.97,547.92z"/>
	<path class="st2" d="M1140.75,567.41c-11.07-2.89-21.69-5.66-33.23-8.67c10.25-6.59,17.96-14.17,24.28-24.04
		C1137.04,545.38,1140.24,555.83,1140.75,567.41z"/>
	<path class="st2" d="M1115.62,521.94c-0.45,15.02-8.33,25.34-20.74,32.87c-2.14,1.29-4.25,0.68-6.28,0.28
		c-10.06-1.97-20.15-3.82-30.36-4.85c-2.41-0.25-4.07-0.99-3.91-3.86c0.06-1.14-0.38-2.29-0.51-3.45c-1.03-8.9-0.99-8.82,7.18-12.31
		c16.49-7.04,29.68-18.65,42.38-30.89c4.47-4.3,4.4-4.37,7.02,1.15C1113.82,508.08,1115.56,515.19,1115.62,521.94z"/>
	<path class="st2" d="M1043.81,547c0.03,1.76-1.58,1.33-2.65,1.24c-7.08-0.59-14.15-1.23-22.06-1.93
		c6.12-5.83,11.69-10.78,16.44-16.53c1.36-1.65,2.59-1.95,3.99-0.21C1043.67,534.71,1043.7,540.89,1043.81,547z"/>
	<path class="st2" d="M1005.42,545.4c-0.87,0.79-1.77,0.74-2.74,0.78c-0.49,0.03-0.99,0.01-1.49,0.01h-21.82
		c1.66-4.79,3.35-9.39,4.84-14.05c0.54-1.71,1.66-1.65,3.01-1.79c5.93-0.59,11.8-1.64,17.22-4.17c2.3-1.08,3.15-0.44,4.14,1.56
		C1010.96,532.53,1009.34,541.81,1005.42,545.4z"/>
	<path class="st2" d="M969.88,542.67c-2.77,5.77-7.57,5.2-12.5,5.83c-17.9,2.3-35.58,5.76-52.82,11.18
		c-1.45,0.46-2.82,0.83-5.23,0.67c22.41-30.03,30.96-63.94,31.37-101.53c5.13,5.91,9.67,11.02,14.07,16.26
		c7.7,9.15,14.85,18.7,20.98,29.01c4.41,7.42,6.59,15.46,7.59,23.89C973.97,533.26,972.16,537.91,969.88,542.67z"/>
	<path class="st2" d="M888.6,540.84c-1.63,14.79-10.17,27.95-24.7,37.19c-4.8,3.06-12.28,1.8-16.15-2.05
		c-4.16-4.15-3.84-9.18-2.25-14.35c1.11-3.6,3.04-6.84,5.77-9.18c10.94-9.42,16.43-22.24,22.36-34.8c2.64-5.59,2.76-5.68,6.72-0.72
		C885.35,523.16,888.52,530.1,888.6,540.84z"/>
	<path class="st2" d="M862.61,507.99c-8.79,10.65-17.5,21.36-26.22,32.06c-1.17,1.44-1.98,2.65-4.39,1.41
		c-14.36-7.41-28.25-15.48-39.48-27.34c-15.2-16.07-15.94-32.93-2.37-50.46c2.76-3.57,5.94-6.74,9.38-9.65
		c0.85-0.72,1.87-1.24,2.83-1.86c1.17,0.75,2.16,1.34,3.1,1.99c20.94,14.36,39.68,31.26,57.26,49.51
		C864.53,505.52,863.89,506.43,862.61,507.99z"/>
	<path class="st2" d="M825.32,594.94c-7.57,13.66-20.02,20.8-35.58,22.44c-3.63,0.39-7.24,1.09-11.69,0.67
		c-19.96,0.99-35.3-8.01-46.1-25.42c-6.67-10.77-6.12-22.65,1.97-32.31c11.87-14.15,23.93-28.15,35.8-42.3
		c1.93-2.29,3.13-2.95,5.83-0.73c15.16,12.48,30.18,25.11,44.95,38.05C833.02,566.29,831.86,583.13,825.32,594.94z"/>
	<path class="st2" d="M757.03,506.18c-13.23,15.14-27.46,29.4-41.21,44.09c-1.72,1.83-2.97,2.62-5.25,0.55
		c-12.23-11.08-23.8-22.72-32.67-36.77c-5.46-8.64-8.2-18.02-7.63-26.86c0.48-3.89,0.45-6.35,1.04-8.83
		c4.56-19.37,12.47-24.18,30.92-27.91c21.68-4.37,39.41,3.69,54.56,18.51C768.07,479.99,766.7,495.13,757.03,506.18z"/>
	<path class="st2" d="M707.62,603.66c-5.84,11.98-15.86,18.24-29.87,18.95c-14.59-1.05-26.4-8.32-34.84-20.37
		c-3.72-5.31-3.23-12.69-4.22-19.19c-1.54-10.16-2.49-20.41-3.84-30.6c-0.32-2.36,0.27-3.96,2.02-5.59
		c7.66-7.15,15.24-14.38,22.71-21.71c1.69-1.66,2.54-1.85,4.23,0.06c13.09,14.82,26.74,29.18,39.33,44.42
		C711.38,579.59,713.51,591.58,707.62,603.66z"/>
	<path class="st2" d="M660.1,481.77c-5.15,16.2-15.34,29.37-26.54,43.64c-0.85-25.52-0.25-49.39,1.05-73.26
		c0.08-1.45-0.08-3.54,2.27-2.56c10.32,4.31,20.48,8.82,24.08,20.98C662.12,474.51,661.24,478.2,660.1,481.77z"/>
	<path class="st3" d="M309.06,163.58c25.72-4.09,45.84-17.49,61.58-37.94c10.06-13.06,16.84-27.95,24.17-42.55
		c1.68-3.34,3.93-6.76,8.02-6.46c4.4,0.32,4.98,4.75,6.2,8.07c0.62,1.69,0.42,3.48-0.42,5.29c-1.8,3.86-3.24,7.89-4.96,11.79
		c-1,2.26-1.35,4.45-0.19,6.7c3.13,6.07,4.92,12.64,5.52,19.3c0.65,7.28,0.15,14.67,0.15,22.01c-4.33-7.35-9.06-13.82-14.43-19.85
		c-2.68-3.02-4.6-3.27-7.41,0.39c-11.63,15.15-25.01,28.33-43.65,34.67c-2.6,0.88-2.42,2.34-2.24,4.12
		c0.68,6.42,1.1,12.91,2.27,19.24c2.99,16.16,2,31.87-4.41,47.09c-2.96,7.03-6.96,13.43-12.44,19.49c0-3.72-0.32-6.76,0.06-9.71
		c1.2-9.36,0.14-18.5-2.54-27.43c-2.72-9.05-3.38-9.24-11.76-5.04c-31.11,15.58-59.55,34.82-83.05,60.8
		c-8.43,9.32-16.35,19.12-22.15,30.24c-18.24,34.95-27.69,71.9-23,111.58c2.71,22.88,12.47,42.21,30.93,56.57
		c3.13,2.43,4.7,5.4,5,9.21c1.8,23.35,1.59,46.62-2.27,69.77c-1.61,0.12-1.65-1.22-2.1-1.93c-6.33-9.94-10.24-20.92-13.11-32.24
		c-4.1-16.14-6.03-32.71-9.03-49.07c-0.29-1.61,0.02-3.49-2.41-3.64c-2.73-0.18-2.17,2.26-2.47,3.53
		c-2.44,10.31-3.69,20.77-4.79,31.32c-1.81,17.36-0.85,34.59,1.5,51.67c4.14,30.13,13,58.99,25.64,86.71
		c8.9,19.53,19.44,38.04,32.7,54.91c4.26,5.42,8.77,10.84,15.02,14.19c7.88,4.22,14.46,1.01,17.06-7.54
		c1.19-3.91,0.96-7.87,1.47-11.75c3.7-28.25,11.94-55.16,23.06-81.24c10.56-24.76,23.87-48.01,39.25-70.11
		c14.78-21.23,31.13-41.15,49.03-59.8c17.25-17.98,35.63-34.75,55.17-50.22c22.67-17.95,46.61-33.98,71.91-48.01
		c4.55-2.52,9.29-4.63,12.77-9.03c10.76-13.6,21.04-27.54,30.97-41.75c6.33-9.05,12.49-18.26,17.21-28.27
		c5.59-11.86,2.37-23.59-1.69-35.06c-1.26-3.54-0.97-6.48,0.43-9.83c5.17-12.4,21.95-17.23,33.76-15.97
		c14.89,1.59,29.25,6.06,43.59,10.38c20.43,6.16,40.55,13.2,60.61,20.45c24.98,9.04,49.96,18.1,74.84,27.42
		c3.35,1.26,6.42,1.75,10.48,1.22c-2.88-1.52-3.6-4.18-6.02-5.57c-38.13-21.93-76.86-42.56-117.64-59.3
		c-36.22-14.87-73.74-21.71-112.73-20.12c-12.43,0.51-20.32,6.3-19.84,20.17c0.05,1.51,0.68,3.29-0.9,4.7
		c-10.88-4.01-20.07-9.66-24.37-21.31c-2.4-6.52-2.52-12.55,1.58-18.25c10.03-13.92,24.98-18.34,40.86-19.87
		c16.44-1.58,32.67,0.92,48.71,4.81c24.51,5.93,47.94,14.63,69.93,26.97c19.24,10.8,38.3,21.93,57.53,32.74
		c19.08,10.73,38.2,21.38,57.43,31.82c24.25,13.16,47.42,28.43,73.68,37.67c14.79,5.2,29.57,10.4,45.62,9.87
		c11.66-0.39,16.94-6.14,15.23-17.71c-1.03-6.97-3.55-13.35-6.84-19.41c-10.29-18.92-24.93-34.23-41.57-47.5
		c-32.12-25.6-68.62-43.48-106.48-58.8c-8.77-3.55-17.67-6.75-27.79-10.6c2.49,0,3.59-0.09,4.67,0.01
		c19.03,1.88,37.68,5.48,55.72,12c27.38,9.9,52.01,24.54,74.48,42.95c7.58,6.21,14.81,12.79,21.67,19.78
		c1.1,1.12,2.16,1.45,3.52,1.07c1.33-0.37,1.04-1.58,0.97-2.49c-0.78-9.86-1.16-19.8-4.64-29.21c-2.15-5.81-5.52-11-9.41-16.22
		c0.95-0.11,1.26-0.25,1.49-0.16c0.61,0.23,1.24,0.48,1.75,0.87c11.13,8.49,18.55,19.76,25.04,32.01
		c5.63,10.63,5.02,22.37,7.69,33.5c2.64,11.03,4.84,22.17,10.28,32.28c2.21,4.11,4.88,7.84,9.68,9.37
		c18.22,5.79,36.93,9.01,55.99,9.08c17.76,0.06,34.98-3.81,51.57-10.1c6.33-2.4,11.75-6.78,12.74-13.56
		c2-13.54-2.08-25.31-13.7-33.45c-17.06-11.95-35.22-21.8-55.14-28.24c-15.88-5.13-31.97-9.52-49.06-13.34
		c4.15-0.48,7.45-0.78,10.71-1.3c1.18-0.19,2.9,0.3,3.36-1.45c0.5-1.87-0.48-3.17-2.01-4.13c-6.31-3.98-11.86-8.95-17.74-13.5
		c-15.3-11.83-32.06-21.38-49.03-30.55c-22.99-12.42-46.17-24.46-70.82-33.35c-19.47-7.02-39.34-12.79-59.57-17.14
		c-19.85-4.27-39.84-7.81-60.02-10.28c-13.1-1.61-26.15-3.73-39.21-5.69c-16.2-2.44-32.32-5.61-48.82-5.24
		c-18.63,0.41-37.25-0.32-55.9,0.81c-21.2,1.29-42.4,2.43-63.57,4.18c-5.08,0.42-5.72,1.51-3.92,6.33
		c2.12,5.67,5.69,10.4,9.78,14.75c5.63,6,12.48,10.44,20.21,14.73c-18.22,1.47-26.65-1.39-39.42-13.32
		c-17.37-16.24-31.24-35.57-46.91-53.31c-11.29-12.78-23.57-24.02-39.71-30.52c-11.44-4.61-23.25-6.82-35.46-8.14
		c-12.08-1.31-23.43-0.45-33.65,6.59c-14.11,9.73-24.74,23.02-34.53,36.64c-10.57,14.7-20.8,29.52-34.7,41.3
		c-2.88,2.44-5.19,6.59-10.6,6.04c2.7-4.48,4.49-8.87,5.56-13.47c0.98-4.18-0.21-5.18-4.11-3.64c-21.39,8.42-43.72,11.15-66.5,10.98
		c-6.97-0.05-13.93-0.78-20.9-0.91c-5.25-0.1-7.73,2.37-7.81,7.48c-0.17,11.15,4,20.02,13.64,26.19c9.37,6,19.53,9.87,30.15,13.02
		C235.3,167.62,271.95,169.48,309.06,163.58z M891.35,193.72c0.2-0.08,0.51,0.14,0.78,0.23c-0.11,0.22-0.2,0.44-0.34,0.62
		c-0.02,0.03-0.27-0.12-0.41-0.18C890.93,194.18,890.9,193.89,891.35,193.72z"/>
	<path class="st3" d="M976.08,395.7c-9.27-3.79-16.52-11.21-16.53-22.72c-0.01-4.66-2.53-2.18-4.14-1.5
		c-24.66,10.49-50.33,14.35-77,12.01c-3.83-0.34-7.71-0.05-11.63-0.05c0.33,2.5,1.87,3.22,3.44,4.23c8.28,5.31,16.8,10.31,24.11,17
		c1.18,1.08,3.44,1.99,2.21,4.38c-1.11,2.14-3.26,2.36-5.17,1.97c-3.04-0.62-6.14-1.39-8.95-2.69
		c-33.77-15.54-67.47-31.23-101.22-46.8c-24.6-11.36-49.21-22.73-75.24-30.58c-14.56-4.4-29.52-6.74-44.59-8.53
		c-15.11-1.79-26.96,5.21-37.73,14.5c-27,23.28-42.89,53.66-53.73,86.85c-8.49,25.99-13.88,52.76-16.41,80.05
		c-0.25,2.73-1.17,5.92-4.13,5.99c-3.2,0.08-4.56-2.97-4.73-6.01c-0.13-2.31,0.01-4.66,0.24-6.97c0.48-4.93,1.25-9.84,1.61-14.78
		c1.26-17.16,3.89-34.15,6.3-51.17c0.25-1.77,1.73-4.04,0.21-5.13c-1.74-1.25-3.57,0.77-5.2,1.79
		c-19.74,12.33-37.37,27.3-54.15,43.32c-12.59,12.02-23.55,25.53-35.05,38.54c-0.09,0.43-0.15,0.94-0.76,0.61
		c-0.07-0.04,0.21-0.72,0.32-1.1c0.4-0.9,0.73-1.85,1.22-2.7c9.07-15.73,19.05-30.86,30.39-45.05c18.32-22.92,39.08-43.17,64.7-57.9
		c2.89-1.66,4.52-3.65,4.91-6.57c0.57-4.26,1.77-8.33,2.89-12.43c0.31-1.13,0.7-2.48-0.1-3.32c-1.01-1.07-2.37-0.49-3.65-0.01
		c-31.47,11.8-61.51,26.51-89.68,44.85c-15.78,10.28-30.8,21.61-44.85,34.22c-14.73,13.22-28.48,27.32-40.76,42.86
		c-14.86,18.81-26.95,39.38-38.29,60.42c-19.5,36.21-37.19,73.1-41.64,114.76c-1.79,16.76-1.01,33.33,3.76,49.66
		c7.11,24.36,21.91,43.78,39.12,61.64c13.25,13.75,27.29,26.68,41.86,39.06c28.53,24.23,58.98,45.46,93.02,61.29
		c19.19,8.92,39.16,15.48,60.29,17.55c26.78,2.62,51.84-3.2,74.83-17.2c20.03-12.2,33.4-29.97,40.06-52.22
		c5.72-19.12,7.05-38.88,5.67-58.89c-0.94-13.56-2.12-27.1-4.55-40.41c-3.78-20.67-8.25-41.23-13.04-61.69
		c-10.83-46.29-21.63-92.55-27.99-139.75c-2.68-19.88-4.39-39.79-5.48-59.79c-0.96-17.79,0.51-35.49,2.83-53.09
		c1.53-11.58,4.4-22.95,8.18-34.03c0.56-1.64,0.99-3.79,3.81-3.91c8.77-0.38,17.51-1.25,26.28-1.59
		c24.26-0.93,48.35,0.72,72.12,5.74c19.44,4.1,37.89,10.9,54.5,22.06c14.67,9.86,28.64,20.65,42.49,31.63
		c17.52,13.88,34.64,28.2,51.08,43.32c5.57,5.12,11.77,9.09,19.01,11.3c10.85,3.31,18.58-0.52,21.15-10.73
		c1.68-6.68,2.71-13.52,4.26-20.23c1.85-7.97,2.85-16.22,7.1-23.48c1.47-2.51,2.45-3.53,5.52-1.13
		c11.98,9.39,23.92,18.8,35.09,29.17c11.85,11,22.68,22.66,27.48,38.66c0.62,2.08,1.49,3.43,4.23,3.78
		c13.56,1.75,27.21,0.91,40.76,1.79c13.46,0.88,25.42-2.13,36.84-9.01c15-9.05,30.75-17.06,40.64-32.55
		c4.25,6.91,8.23,14.03,10.68,21.72c1.5,4.71,4.49,5.24,8.43,5.67c12.64,1.4,25.26,3.1,37.9,4.51c8.87,0.99,17.67,2.86,26.65,2.74
		c7.51-0.1,11.81-3.66,13.74-11c2.44-9.29,0.46-18.05-3.51-26.4c-10.71-22.55-27.71-39.82-47.22-54.74
		c-15.96-12.2-33.7-21.24-52.83-27.44c-9.55-3.1-9.57-3-8.71,6.51c0.12,1.32,0.22,2.66,0.22,3.98c0.03,11.61-0.01,23.21,0.07,34.82
		c0.03,5.38-1.7,6.93-6.84,5.41c-5.04-1.49-9.98-3.29-14.89-5.22C1043.96,422.25,1009.8,409.51,976.08,395.7z M845.47,433.42
		c-4.37-0.02-9.62-3.51-9.57-6.37c0.06-3,5.57-6.71,9.93-6.68c4.45,0.03,9.69,3.72,9.73,6.84
		C855.62,430.2,850.34,433.44,845.47,433.42z M893.59,447.22c-0.52,4.12-6.45,8.1-12.2,8.2c-0.5,0.01-1,0-2.75,0
		c-0.24-0.02-1.78,0.08-3.2-0.28c-5.91-1.53-9.95-6.51-8.89-10.74c1.05-4.18,9.53-8.61,14.86-7.73c0.64,0.11,1.24,0.48,1.89,0.62
		C890.47,438.84,894.2,442.42,893.59,447.22z M973.43,429.05c-0.47,0.45-1.16,0.93-1.96,1.39c-2.4,1.38-5.86,2.63-7.8,2.66
		c-3.04-0.32-6.02-0.96-8.62-2.51c-0.37-0.22-0.73-0.46-1.09-0.72c-4.39-3.25-4.33-7.01-0.09-10.52c5.56-4.6,13.91-4.5,19.41,0.24
		C976.52,422.36,976.57,426.02,973.43,429.05z M1020.96,465.07c-3.44,2.84-7.55,3.85-12.06,4.36c-3.73-0.57-7.57-1.49-10.73-3.97
		c-6.44-5.06-5.81-11.88,1.35-15.96c7.68-4.37,16.35-3.42,22.14,2.42C1025.9,456.21,1025.65,461.18,1020.96,465.07z M1173.59,477.68
		c-0.05,3.01-4.83,6.49-8.76,6.39c-4.5-0.11-9.38-3.53-9.27-6.49c0.1-2.63,5.47-6.26,9.15-6.19
		C1168.88,471.47,1173.64,474.84,1173.59,477.68z M1154.52,438.33c4.9,0.08,9.11,4.29,9.08,9.08c-0.03,4.45-4.44,8.91-8.92,9
		c-4.74,0.1-10.08-4.67-10.1-9.02C1144.55,442.75,1149.49,438.25,1154.52,438.33z"/>
	<path class="st3" d="M1291.95,567.71c-2.84-1.59-5.23-1.19-7.94,0.07c-8.49,3.98-17.59,5.72-26.82,6.84
		c-18.95,2.29-37.78,0.75-56.57-1.94c-3.07-0.44-5.52,0.58-7.44,2.99c-1.23,1.55-2.34,3.23-3.77,4.57
		c-2.58,2.43-2.27,3.33,1.26,4.21c16.14,4.02,31.12,10.78,44.32,20.92c13.64,10.48,25.32,22.82,32.92,38.55
		c0.5,1.04,1.49,2.19,0.48,3.17c-1.2,1.16-2.02-0.34-2.88-0.96c-9.4-6.69-18.77-13.42-28.16-20.11
		c-18.24-12.98-37.39-24.06-59.72-28.46c-35.99-7.09-71.92-14.43-107.96-21.24c-35.91-6.78-72.1-8.65-108.54-4.96
		c-34.86,3.53-67.93,13.17-99.73,27.73c-22.22,10.17-42.11,24.05-62.3,37.51c-21.12,14.08-41.99,28.72-65.93,37.73
		c-22.39,8.42-44.39,8.18-64.92-5.88c-2.43-1.67-4.52-3.85-7.52-4.64c-0.37,2.05,0.25,3.88,1,5.77c2.81,7.06,5.67,14.11,8.21,21.26
		c13.31,37.51,16.89,76.19,13.49,115.65c-0.51,5.93-1.33,11.85-2.22,17.74c-2.78,18.45-10.58,35.32-16.68,52.72
		c-1.96,5.59-1.57,6.41,4.24,6.15c11.61-0.52,23.21-1.2,34.82-1.6c21.91-0.74,43.76-2.24,65.6-4.03
		c29.08-2.38,58.04-5.72,86.87-10.27c41.2-6.51,81.85-15.17,120.94-30.07c23.52-8.96,46.16-19.52,65.55-36.14
		c4.08-3.5,7.17-7.94,11.68-11.65c2.01,15.13-3.34,27.49-11.08,39.1c-5.63,8.44-12.38,15.97-19.75,22.93
		c-1.14,1.08-2.32,2.4-1.62,3.85c0.94,1.94,2.52,0.46,3.83,0.08c16.84-4.84,33.45-10.36,49.58-17.21
		c31.86-13.53,61.82-29.93,84.8-56.79c14.1-16.48,22.83-35.69,29.3-56.12c0.72-2.29,0.39-3.75-2.54-4.78
		c-35.71-12.46-71.36-25.11-107-37.77c-2.74-0.97-5.53-1.39-8.31-0.92c-6.84,1.16-13.63,2.58-20.44,3.91
		c-19.12,3.74-38.21,7.52-56.81,13.51c-8.84,2.85-17.58,5.96-26.25,9.26c-5.78,2.2-11.52,4.48-17.24,6.82
		c-2.86,1.17-5.72,2.36-8.56,3.55c-5.7,2.4-11.38,4.84-17.05,7.31l0,0c-0.33,0.19-0.67,0.43-0.99,0.39
		c-0.06-0.01-0.12-0.03-0.18-0.06c-0.12-0.07-0.23-0.19-0.33-0.39c-0.05-0.09,0.27-0.36,0.55-0.62c0.09-0.09,0.18-0.17,0.25-0.24
		l0,0c1.66-1.76,3.37-3.47,5.11-5.11c0.87-0.82,1.75-1.64,2.64-2.43c1.78-1.6,3.6-3.14,5.45-4.63
		c10.19-8.21,21.44-14.93,33.31-20.75c12.78-6.27,26.48-10.11,39.93-14.6c1-0.33,2.63-0.1,2.54-1.81c-0.1-1.83-1.74-1.1-2.73-1.28
		c-13.06-2.46-26.23-3.69-39.53-4.02c-20.97-0.53-41.83,0.7-62.69,2.62c-6.68,0.61-13.41,1.86-20.19,0.95
		c2.68-1.51,5.37-2.69,8.12-3.69c47.36-17.23,96.21-24.12,146.48-21.08c21.85,1.32,43.45,4.43,64.89,8.78
		c30.04,6.1,59.32,14.9,88.13,25.22c24.24,8.68,49.02,14.71,74.7,16.77c19.99,1.61,39.84-0.64,59.63-3
		c20.63-2.46,32.49-15.63,32.3-36.33c-0.2-21.88-7.93-41.08-22.67-57.32C1326.17,588.43,1309.48,577.52,1291.95,567.71z"/>
	<path class="st4" d="M397.44,874.74c-0.31,2.03-1.9,1.4-3.1,1.6c-10.68,1.75-19.74,6.11-25.91,15.5c-2.65,4.03-3.48,8.6-3.79,13.11
		c-0.49,7.26-0.24,14.56-1.04,21.84c-0.54,4.94-1.46,5.89-6.06,3.43c-7.84-4.19-15.67-8.44-23.24-13.09
		c-15.3-9.37-30.61-18.73-45.35-28.97c-18.12-12.59-35.78-25.76-52.88-39.73c-18.79-15.36-36.29-32.06-53.18-49.43
		c-4.71-4.84-8.87-10.23-13.39-15.27c-1.98-2.21-4.1-4.86-2.46-7.44c1.32-2.07,4.69-1.12,6.98-0.48c6.21,1.71,12.5,3.19,18.87,3.53
		c20.52,1.1,28.52-8.47,34.68-26.32c1.15-3.33,1.3-6.81,1.06-9.74c0.41-18.3-11.85-35.68-29.26-41.94
		c-7.27-2.62-14.63-5.43-22.36-5.67c-8.04-0.24-15.39,2.89-21.96,7.61c-6.01,4.32-12.07,8.57-17.98,13.02
		c-6.63,5.01-8.39,4.46-11.44-3.3c-6.33-16.1-10.66-32.83-15.66-49.33c-5.76-19.02-11.17-38.15-15.51-57.57
		c-3.99-17.81-7.64-35.65-9.98-53.78c-1.8-13.98-3.12-27.94-2.88-42.04c0.07-4.06-1.79-7.95-0.19-12.22
		c1.41-3.76,2.96-4.94,6.41-2.7c4.28,2.77,8.18,6.15,12.98,8.03c22.65,8.85,46.75-5.46,54.84-27.32c4.85-13.11,5.5-26.22-1.57-38.56
		c-8.25-14.38-22.96-19.72-40.22-15.91c-5.28,1.17-10.66,2.03-16.05,2.63c-6.25,0.68-7.43-0.9-5.61-6.89
		c2.14-7.08,4.11-14.23,6.62-21.18c9.54-26.43,21.88-51.48,36.79-75.33c10.23-16.35,21.74-31.75,33.37-47.09
		c1.82-2.41,4.7-3.88,6.41-1.02c5.06,8.42,13.38,10.04,21.83,11.64c4.67,0.88,5.54,2.53,3.11,6.65
		c-7.97,13.51-14.97,27.51-20.28,42.29c-5.87,16.34-8.72,33.24-7.46,50.6c1.74,23.84,5.88,47.3,12.35,70.33
		c0.85,3.02,0.59,5.75-0.63,8.66c-5.71,13.62-8.37,27.91-9.94,42.57c-1.93,18.05-2.4,36.13-1.73,54.19
		c1.25,33.6,6.49,66.47,20.18,97.57c7.31,16.6,16.98,31.54,29,45.12c15.62,17.65,34.7,30.08,56.11,39.49
		c5.27,2.31,10.11,5.84,12.69,11.78c8.48,19.47,20.19,37.01,33.89,53.09c12.8,15.02,26.87,28.87,42.11,41.53
		c9.39,7.81,18.96,15.34,28.83,22.5C396.99,871.84,397.73,872.88,397.44,874.74z"/>
	<path class="st5" d="M1046.92,811.06c0.43-1.9,1.32-4.3-0.65-5.45c-1.68-0.97-3.79-0.17-5.46,1.27c-2.75,2.36-5.61,4.59-8.47,6.83
		c-18.59,14.55-39.86,23.97-61.83,31.95c-24.53,8.91-49.69,15.62-75.18,21.25c-22.42,4.95-44.99,9-67.65,12.46
		c-19.76,3.02-39.65,5.27-59.54,7.43c-21.89,2.38-43.83,4.01-65.78,5.54c-16.74,1.17-33.55,1.71-50.36,1.23
		c-2.23-0.06-4.05,0.46-5.98,1.76c-9.45,6.37-19.27,12.1-29.62,16.94c-35.45,16.57-72.17,20.26-110.3,11.66
		c-16.18-3.65-31.7-9.14-46.93-15.55c-1.93-0.81-4.23-1.69-5.69-0.53c-1.8,1.44-0.77,4.03-0.33,6.1c1.31,6.19,0.87,12.05-2.01,17.87
		c-3.19,6.45-8.02,11.34-13.5,15.69c-1.32,1.05-2.09,1.97-2.03,3.64c0.07,2.28,1.89,1.89,3.25,2.21c1.12,0.26,2.24,0.57,3.37,0.79
		c15.74,3.07,31.59,5.31,47.52,7.23c13.98,1.68,28.01,2.64,42.03,3.58c11.61,0.78,23.32,0.16,34.98,0.16c0-0.01,0-0.02,0-0.03
		c12.33,0,24.71,0.68,36.98-0.15c20.12-1.37,40.28-2.66,60.25-5.77c1.94-0.3,4.39,0.18,5.21-1.97c0.86-2.26-0.21-4.26-1.79-6.32
		c-7.73-10.01-7.49-21.39-0.45-31.77c12.87-18.99,47.25-28.43,67.91-12.1c9.81,7.75,15.99,15.95,13.05,29.06
		c-1.29,5.76,0.52,7.14,6.38,5.63c25.23-6.48,50.43-13.03,75.66-19.5c39.33-10.08,78.56-20.52,116.92-33.99
		c18.78-6.59,36.82-14.69,53.76-25.16c8.05-4.98,14.93-11.49,21.94-17.75C1033.24,835.79,1043.57,825.85,1046.92,811.06z"/>
	<path class="st3" d="M1290.8,737.48c-8.12,0.52-16.32,0.35-24.46-0.09c-11.41-0.62-22.74-2.11-33.91-4.69
		c-3.39-0.78-6.34-0.84-7.76,3.58c-1.1,3.4-3.08,6.56-4.93,9.67c-14.36,24.15-34.42,43.08-56.32,60.08
		c-24.23,18.81-50.51,34.46-77.89,48.27c-2.1,1.06-6.29,1.31-5.5,4.25c0.63,2.34,4.38,0.3,7.86,0.8c9.76-0.94,20.66-1.89,31.53-3.05
		c31.35-3.36,62.08-9.46,91.51-21.13c24.93-9.89,47.26-23.54,64.08-44.98c10.95-13.97,17.21-29.97,20.27-47.33
		C1295.89,739.33,1295.75,737.16,1290.8,737.48z"/>
	<path class="st3" d="M678.18,78.88c4.95,0.12,9.89,0.91,14.83,1.52c27.68,3.4,54.79,9.21,80.99,18.95
		c6.38,2.37,12.74,4.78,19.8,7.44c-2.42-6.29-4.62-11.6-6.5-17.03c-1.89-5.46-2.58-11.07-0.6-17.45
		c14.99,26.75,36.3,44.79,66.62,50.87c0.56-1.53-0.56-2.21-1.25-3.08c-16.18-20.65-30.75-42.4-44.05-64.98
		c-3.42-5.81-7.91-9.53-13.9-12.01c-15.31-6.34-31.23-9.35-47.78-10.1c-15.15-0.68-29.78,0.92-43.62,7.23
		c-14.63,6.67-23.78,18.09-28.05,33.54C673.74,77.09,674.09,78.78,678.18,78.88z"/>
	<path class="st3" d="M1023.51,332.81c-13.46-8.13-28.08-11.66-43.44-12.07c-19.03-0.51-36.99,4.38-54.14,12.56
		c-7.13,3.4-13.82,7.69-21.32,10.37c-16.27,5.81-33.2,7.37-50.28,7.94c-18.8,0.63-37.54-0.56-56.28-1.92
		c-1.93-0.14-4.76-1.13-5.45,1.91c-0.71,3.11,2.19,3.69,4.16,4.73c7.21,3.8,15.09,5.72,22.83,8.01
		c19.56,5.79,39.39,10.12,59.84,11.07c18.31,0.85,35.75-1.37,52.54-10.02c17.43-8.99,36.28-14.2,56.19-14.34
		c4.17,0.2,8.3,0.11,12.46,0.68c19.14,2.64,37.22,8.82,55.02,16.03c7.7,3.12,15.51,5.85,24.02,5.62c2.28-0.06,4.38-0.27,5.14-2.89
		c1.21-4.14,1.44-8.24-1.63-11.72c-5.79-6.57-13.29-10.48-21.7-12.03C1047.98,344.25,1035.17,339.86,1023.51,332.81z"/>
	<path class="st5" d="M226.11,218.06c7.65,3.53,12.31,9.66,15.42,17.17c1.96,4.73,4.15,5.45,8.31,2.16
		c11.42-9.02,24.14-15.87,36.85-22.84c13.17-7.23,25.38-15.93,35.9-26.8c1.22-1.26,2.17-2.5,1.92-4.29c0.32-3.2-1.36-4.44-4.21-3.92
		c-7.29,1.34-14.58,2.46-21.97,3.2c-13.76,1.37-27.42,0.63-41.06-1c-3.23-0.39-5.62-0.09-7.97,2.43
		c-8.14,8.73-16.52,17.25-24.76,25.9C221.34,213.41,221.79,216.07,226.11,218.06z"/>
	<path class="st2" d="M759.64,305.88c-0.7,1.77-2.21,2.49-3.88,2.28c-1.39-0.17-3.29-0.77-3.07-2.56c0.23-1.9,2.05-2.42,3.82-2.27
		C758.04,303.46,759.39,304,759.64,305.88z"/>
	<path class="st1" d="M891.38,194.39c0.14,0.07,0.39,0.21,0.41,0.18c0.14-0.18,0.22-0.4,0.34-0.62c-0.27-0.09-0.58-0.31-0.78-0.23
		C890.9,193.89,890.93,194.18,891.38,194.39z"/>
	<path class="st1" d="M999.51,449.5c-7.15,4.07-7.79,10.9-1.35,15.96c3.16,2.48,7,3.4,10.73,3.97c4.51-0.51,8.63-1.51,12.06-4.36
		c4.69-3.89,4.94-8.86,0.69-13.15C1015.87,446.08,1007.19,445.13,999.51,449.5z"/>
	<path class="st1" d="M883.29,437.28c-0.64-0.14-1.24-0.52-1.89-0.62c-5.33-0.88-13.81,3.55-14.86,7.73
		c-1.06,4.24,2.98,9.21,8.89,10.74c1.42,0.37,2.96,0.27,3.2,0.28c1.75,0,2.25,0.01,2.75,0c5.75-0.1,11.68-4.08,12.2-8.2
		C894.2,442.42,890.47,438.84,883.29,437.28z"/>
	<path class="st1" d="M973.29,419.58c-5.5-4.74-13.85-4.84-19.41-0.24c-4.24,3.51-4.3,7.27,0.09,10.52c0.35,0.26,0.72,0.5,1.09,0.72
		c2.59,1.56,5.58,2.19,8.62,2.51c1.94-0.03,5.4-1.27,7.8-2.66c0.8-0.46,1.48-0.94,1.96-1.39
		C976.57,426.02,976.52,422.36,973.29,419.58z"/>
	<path class="st1" d="M1154.67,456.41c4.48-0.09,8.89-4.55,8.92-9c0.03-4.79-4.18-9.01-9.08-9.08c-5.03-0.08-9.97,4.42-9.94,9.07
		C1144.59,451.74,1149.93,456.51,1154.67,456.41z"/>
	<path class="st1" d="M845.84,420.37c-4.36-0.03-9.87,3.67-9.93,6.68c-0.06,2.85,5.19,6.35,9.57,6.37c4.87,0.02,10.14-3.22,10.1-6.2
		C855.53,424.09,850.29,420.41,845.84,420.37z"/>
	<path class="st1" d="M1155.55,477.58c-0.11,2.96,4.77,6.38,9.27,6.49c3.94,0.1,8.71-3.38,8.76-6.39c0.05-2.85-4.71-6.22-8.89-6.29
		C1161.02,471.32,1155.65,474.95,1155.55,477.58z"/>
</g>
</svg>
